<?xml version="1.0" encoding="UTF-8"?>
<svg id="Layer_1" data-name="Layer 1" xmlns="http://www.w3.org/2000/svg" xmlns:xlink="http://www.w3.org/1999/xlink" viewBox="0 0 292.51801 292.65283">
  <defs>
    <style>
      .cls-1 {
        fill: none;
      }

      .cls-2 {
        clip-path: url(#clippath);
      }
    </style>
    <clipPath id="clippath">
      <rect class="cls-1" x="211.81954" y="310.96288" width="308.66141" height="308.66141"/>
    </clipPath>
  </defs>
  <g class="cls-2">
    <image width="5669" height="8031" transform="translate(97.98216 2296.81707) rotate(-90) scale(.37392)" xlink:href="../../../wandrätsel_test.png"/>
  </g>
  <g>
    <polygon points="16.5838 26.2559 16.5838 26.25241 16.5838 7.04652 6.9791 7.04652 6.9791 26.25241 6.9791 26.2559 6.9791 45.46529 16.5838 45.46529 16.5838 26.2559"/>
    <polygon points="16.5838 45.46859 6.9791 45.46859 6.9791 74.28617 16.5838 74.28617 16.5838 74.28267 26.18849 74.28267 26.18849 64.67797 16.5838 64.67797 16.5838 45.46859"/>
    <rect x="6.9791" y="83.88736" width="9.60469" height="19.21289"/>
    <polygon points="16.5838 112.70824 6.9791 112.70824 6.9791 122.31293 16.5838 122.31293 16.5838 131.91433 26.18849 131.91433 26.18849 122.30964 16.5838 122.30964 16.5838 112.70824"/>
    <polygon points="16.5838 131.91763 6.9791 131.91763 6.9791 160.73171 16.5838 160.73171 26.18849 160.73171 26.18849 151.12702 16.5838 151.12702 16.5838 131.91763"/>
    <polygon points="16.5838 179.94789 6.9791 179.94789 6.9791 189.55258 16.5838 189.55258 16.5838 199.15399 26.18849 199.15399 26.18849 189.54929 16.5838 189.54929 16.5838 179.94789"/>
    <rect x="6.9791" y="199.15728" width="9.60469" height="9.60469"/>
    <polygon points="6.9791 218.36667 6.9791 285.60632 16.5838 285.60632 26.18849 285.60632 26.18849 276.00162 16.5838 276.00162 16.5838 227.97136 26.18849 227.97136 26.18849 218.36667 16.5838 218.36667 6.9791 218.36667"/>
    <polygon points="35.79648 16.65121 45.39788 16.65121 45.39788 7.04652 35.79648 7.04652 26.19179 7.04652 16.58709 7.04652 16.58709 16.65121 26.19179 16.65121 35.79648 16.65121"/>
    <polygon points="26.19179 26.2559 26.19179 45.46529 26.19179 45.46859 26.19179 55.06999 35.79648 55.06999 45.40117 55.06999 55.00587 55.06999 55.00587 45.46859 55.00587 45.46529 55.00587 26.2559 45.40117 26.2559 35.79648 26.2559 26.19179 26.2559"/>
    <polygon points="45.40117 266.39693 55.00587 266.39693 55.00587 237.57935 45.40117 237.57935 35.79648 237.57935 26.19179 237.57935 26.19179 266.39693 35.79648 266.39693 45.40117 266.39693"/>
    <polygon points="45.40117 7.04652 45.40117 16.65121 55.00587 16.65121 64.61056 16.65121 64.61056 7.04652 55.00587 7.04652 45.40117 7.04652"/>
    <polygon points="45.40117 64.67797 35.79648 64.67797 26.19179 64.67797 26.19179 74.28267 35.79648 74.28267 45.40117 74.28267 55.00587 74.28267 64.61056 74.28267 64.61056 64.67797 55.00587 64.67797 45.40117 64.67797"/>
    <rect x="45.40117" y="83.88736" width="9.60469" height="9.60469"/>
    <polygon points="45.40117 218.36667 35.79648 218.36667 26.19179 218.36667 26.19179 227.97136 35.79648 227.97136 45.40117 227.97136 55.00587 227.97136 64.61056 227.97136 64.61056 218.36667 55.00587 218.36667 45.40117 218.36667"/>
    <polygon points="45.40117 276.00162 35.79648 276.00162 26.19179 276.00162 26.19179 285.60632 35.79648 285.60632 45.40117 285.60632 55.00587 285.60632 64.61056 285.60632 64.61056 276.00162 55.00587 276.00162 45.40117 276.00162"/>
    <polygon points="55.00587 112.70494 45.40117 112.70494 45.40117 93.49556 35.79648 93.49556 35.79648 83.88736 26.19179 83.88736 26.19179 122.30964 35.79648 122.30964 35.79648 112.70824 45.40117 112.70824 45.40117 131.91433 55.00587 131.91433 55.00587 112.70824 64.61056 112.70824 64.61056 93.49556 55.00587 93.49556 55.00587 112.70494"/>
    <polygon points="55.00587 151.12702 45.40117 151.12702 45.40117 131.91763 35.79648 131.91763 26.19179 131.91763 26.19179 141.52232 35.79648 141.52232 35.79648 151.12702 26.19179 151.12702 26.19179 199.15399 35.79648 199.15399 35.79648 208.75868 45.40117 208.75868 45.40117 208.76197 55.00587 208.76197 64.61056 208.76197 64.61056 199.15728 55.00587 199.15728 45.40117 199.15728 45.40117 189.54929 35.79648 189.54929 35.79648 179.9446 45.40117 179.9446 45.40117 170.3399 35.79648 170.3399 35.79648 151.13051 45.40117 151.13051 45.40117 170.3399 55.00587 170.3399 55.00587 160.73521 64.61056 160.73521 64.61056 131.91763 55.00587 131.91763 55.00587 151.12702"/>
    <rect x="55.00587" y="170.3399" width="9.60469" height="19.21268"/>
    <polygon points="74.21876 45.46859 74.21876 45.46529 74.21876 26.2559 74.21876 7.04652 64.61406 7.04652 64.61406 26.2559 64.61406 45.46529 64.61406 45.46859 64.61406 74.28267 74.21876 74.28267 74.21876 45.46859"/>
    <rect x="64.61406" y="83.88736" width="9.60469" height="9.60469"/>
    <rect x="64.61406" y="103.10025" width="9.60469" height="9.60469"/>
    <rect x="64.61406" y="141.52232" width="9.60469" height="9.60469"/>
    <rect x="64.61406" y="199.15728" width="9.60469" height="9.60469"/>
    <rect x="64.61406" y="218.36667" width="9.60469" height="67.23965"/>
    <rect x="74.21876" y="93.49556" width="9.60469" height="9.60469"/>
    <polygon points="74.21876 160.73521 64.61406 160.73521 64.61406 170.3399 74.21876 170.3399 74.21876 179.9446 64.61406 179.9446 64.61406 189.54929 74.21876 189.54929 74.21876 199.15728 83.82345 199.15728 83.82345 179.9446 93.42814 179.9446 93.42814 160.73171 103.03284 160.73171 103.03284 151.12702 93.42814 151.12702 93.42814 141.52232 83.82345 141.52232 83.82345 160.73521 74.21876 160.73521"/>
    <rect x="83.82345" y="45.46529" width="9.60469" height="9.60469"/>
    <rect x="83.82345" y="64.67797" width="9.60469" height="9.60469"/>
    <rect x="83.82345" y="208.76197" width="9.60469" height="9.60469"/>
    <rect x="83.82345" y="237.57935" width="9.60469" height="9.60469"/>
    <rect x="83.82345" y="276.00162" width="9.60469" height="9.60469"/>
    <rect x="93.42814" y="35.8606" width="9.60469" height="9.60469"/>
    <polygon points="93.42814 103.10025 83.82345 103.10025 83.82345 122.30964 74.21876 122.30964 64.61406 122.30964 64.61406 131.91433 74.21876 131.91433 74.21876 141.52232 83.82345 141.52232 83.82345 131.91763 93.42814 131.91763 93.42814 131.91433 103.03284 131.91433 103.03284 122.30964 93.42814 122.30964 93.42814 112.70494 103.03284 112.70494 103.03284 74.28267 93.42814 74.28267 93.42814 103.10025"/>
    <rect x="93.42814" y="189.54929" width="9.60469" height="9.60469"/>
    <rect x="93.42814" y="227.97136" width="9.60469" height="9.60469"/>
    <polygon points="93.42814 256.78874 83.82345 256.78874 83.82345 266.39364 93.42814 266.39364 93.42814 276.00162 103.03284 276.00162 103.03284 247.18404 93.42814 247.18404 93.42814 256.78874"/>
    <polygon points="112.63753 7.04652 103.03284 7.04652 93.42814 7.04652 93.42814 16.65121 83.82345 16.65121 83.82345 26.2559 93.42814 26.2559 103.03284 26.2559 112.63753 26.2559 112.63753 7.04652"/>
    <rect x="103.03613" y="141.52232" width="9.60469" height="19.20939"/>
    <rect x="103.03613" y="170.3399" width="9.60469" height="9.60469"/>
    <rect x="103.03613" y="276.00162" width="9.60469" height="9.60469"/>
    <rect x="112.64083" y="35.8606" width="9.60469" height="9.60469"/>
    <polygon points="112.64083 83.88736 112.64083 64.67797 122.24552 64.67797 122.24552 55.07328 112.64083 55.07328 103.03613 55.07328 103.03613 103.10025 112.64083 103.10025 122.24552 103.10025 122.24552 112.70494 112.64083 112.70494 103.03613 112.70494 103.03613 122.30964 112.64083 122.30964 112.64083 131.91433 122.24552 131.91433 122.24552 141.52232 131.85021 141.52232 141.45491 141.52232 141.45491 131.91763 131.85021 131.91763 131.85021 112.70494 141.45491 112.70494 141.45491 103.10025 131.85021 103.10025 131.85021 83.88736 122.24552 83.88736 112.64083 83.88736"/>
    <rect x="112.64083" y="160.73521" width="9.60469" height="9.60469"/>
    <polygon points="122.24552 179.9446 112.64083 179.9446 112.64083 208.76197 122.24552 208.76197 122.24552 199.15399 131.85021 199.15399 131.85021 189.54929 122.24552 189.54929 122.24552 179.9446"/>
    <polygon points="112.64083 218.36667 103.03613 218.36667 103.03613 227.97136 112.64083 227.97136 122.24552 227.97136 131.85021 227.97136 131.85021 218.36667 122.24552 218.36667 112.64083 218.36667"/>
    <polygon points="122.24552 256.78874 131.85021 256.78874 131.85021 247.18404 122.24552 247.18404 112.64083 247.18404 103.03613 247.18404 103.03613 266.39693 112.64083 266.39693 112.64083 276.00162 122.24552 276.00162 122.24552 275.99833 131.85021 275.99833 131.85021 266.39364 122.24552 266.39364 122.24552 256.78874"/>
    <rect x="122.24552" y="7.04652" width="9.60469" height="9.60469"/>
    <polygon points="122.24552 26.2559 122.24552 35.8606 131.85021 35.8606 131.85021 45.46859 141.45491 45.46859 141.45491 26.2559 131.85021 26.2559 122.24552 26.2559"/>
    <rect x="122.24552" y="64.67797" width="9.60469" height="9.60469"/>
    <rect x="122.24552" y="170.3399" width="9.60469" height="9.60469"/>
    <rect x="131.85371" y="7.04652" width="9.60469" height="9.60469"/>
    <rect x="131.85021" y="55.07328" width="9.60469" height="9.60469"/>
    <rect x="131.85021" y="74.28267" width="9.60469" height="9.60469"/>
    <rect x="131.85021" y="151.12702" width="9.60469" height="9.60469"/>
    <rect x="131.85021" y="179.9446" width="9.60469" height="9.60469"/>
    <rect x="131.85021" y="208.76197" width="9.60469" height="9.60469"/>
    <rect x="131.85021" y="227.97136" width="9.60469" height="9.60469"/>
    <rect x="131.85021" y="256.78874" width="9.60469" height="9.6049"/>
    <rect x="131.85021" y="276.00162" width="9.60469" height="9.60469"/>
    <rect x="141.45841" y="218.36667" width="9.60469" height="38.42207"/>
    <polygon points="151.0631 112.70494 151.0631 122.30964 160.6678 122.30964 160.6678 122.31293 170.27249 122.31293 170.27249 131.91763 179.87719 131.91763 179.87719 103.10025 170.27249 103.10025 160.6678 103.10025 160.6678 112.70494 151.0631 112.70494"/>
    <rect x="151.0631" y="266.39364" width="9.60469" height="9.60469"/>
    <polygon points="160.6678 7.04652 160.6678 16.65121 151.0631 16.65121 141.45841 16.65121 141.45841 26.2559 141.45841 45.46529 141.45841 45.46859 141.45841 55.06999 151.0631 55.06999 151.0631 45.46859 151.0631 45.46529 160.6678 45.46529 160.6678 35.8606 151.0631 35.8606 151.0631 26.2559 160.6678 26.2559 160.6678 35.8606 170.27249 35.8606 170.27249 26.2559 179.87719 26.2559 179.87719 7.04652 170.27249 7.04652 160.6678 7.04652"/>
    <polygon points="170.27249 64.67797 160.6678 64.67797 160.6678 83.88736 151.0631 83.88736 151.0631 64.67797 141.45841 64.67797 141.45841 103.10025 151.0631 103.10025 160.6678 103.10025 160.6678 93.49556 170.27249 93.49556 179.87719 93.49556 179.87719 74.28267 170.27249 74.28267 170.27249 64.67797"/>
    <rect x="160.6678" y="131.91763" width="9.60469" height="9.60469"/>
    <polygon points="160.6678 151.12702 151.0631 151.12702 151.0631 141.52232 141.45841 141.52232 141.45841 179.9446 151.0631 179.9446 151.0631 160.73171 160.6678 160.73171 170.27249 160.73171 170.27249 170.3399 160.6678 170.3399 160.6678 179.9446 170.27249 179.9446 170.27249 189.54929 160.6678 189.54929 160.6678 199.15728 151.0631 199.15728 151.0631 208.76197 160.6678 208.76197 160.6678 227.97136 170.27249 227.97136 170.27249 237.57935 160.6678 237.57935 160.6678 256.79223 170.27249 256.79223 170.27249 276.00162 160.6678 276.00162 160.6678 285.60632 170.27249 285.60632 179.87719 285.60632 179.87719 256.78874 170.27249 256.78874 170.27249 247.18404 179.87719 247.18404 179.87719 141.52232 170.27249 141.52232 170.27249 151.12702 160.6678 151.12702"/>
    <rect x="170.27249" y="45.46529" width="9.60469" height="9.60469"/>
    <rect x="179.88048" y="170.3399" width="9.60469" height="9.60469"/>
    <rect x="179.88048" y="237.57935" width="9.60469" height="9.60469"/>
    <polygon points="199.08987 26.2559 199.08987 7.04652 189.48517 7.04652 179.88048 7.04652 179.88048 16.65121 189.48517 16.65121 189.48517 26.2559 189.48517 35.8606 199.08987 35.8606 199.08987 26.2559"/>
    <polygon points="189.48517 45.46529 189.48517 35.8606 179.88048 35.8606 179.88048 45.46529 179.88048 93.49206 189.48517 93.49206 189.48517 64.67797 199.08987 64.67797 199.08987 55.06999 208.69456 55.06999 208.69456 45.46529 199.08987 45.46529 189.48517 45.46529"/>
    <polygon points="189.48517 112.70494 179.88048 112.70494 179.88048 122.30964 189.48517 122.30964 199.08987 122.30964 208.69456 122.30964 208.69456 112.70494 199.08987 112.70494 189.48517 112.70494"/>
    <polygon points="189.48517 266.39364 179.88048 266.39364 179.88048 275.99833 189.48517 275.99833 189.48517 285.60303 199.08987 285.60303 208.69456 285.60303 208.69456 266.39364 199.08987 266.39364 189.48517 266.39364"/>
    <rect x="199.08987" y="64.67797" width="9.60469" height="9.60469"/>
    <rect x="199.08987" y="83.88736" width="9.60469" height="19.21289"/>
    <polygon points="199.08987 151.12702 189.48517 151.12702 189.48517 141.52232 179.88048 141.52232 179.88048 160.73171 189.48517 160.73171 189.48517 170.3399 199.08987 170.3399 199.08987 189.54929 189.48517 189.54929 179.88048 189.54929 179.88048 199.15399 189.48517 199.15399 199.08987 199.15399 199.08987 218.36667 189.48517 218.36667 189.48517 208.76197 179.88048 208.76197 179.88048 227.97465 189.48517 227.97465 189.48517 227.97136 199.08987 227.97136 199.08987 247.18404 208.69456 247.18404 208.69456 160.73521 199.08987 160.73521 199.08987 151.13051 208.69456 151.13051 208.69456 131.91763 199.08987 131.91763 199.08987 151.12702"/>
    <rect x="208.69806" y="276.00162" width="9.60469" height="9.60469"/>
    <polygon points="218.30275 112.70824 227.90745 112.70824 227.90745 93.49556 218.30275 93.49556 208.69806 93.49556 208.69806 103.10025 218.30275 103.10025 218.30275 112.70824"/>
    <rect x="218.30275" y="218.36667" width="9.60469" height="9.60469"/>
    <polygon points="247.11684 16.65121 247.11684 7.04652 237.51214 7.04652 227.90745 7.04652 227.90745 16.65121 237.51214 16.65121 247.11684 16.65121"/>
    <polygon points="237.51214 26.2559 237.51214 45.46529 237.51214 45.46859 237.51214 55.06999 247.11684 55.06999 256.72153 55.06999 256.72153 45.46859 256.72153 45.46529 256.72153 26.2559 247.11684 26.2559 237.51214 26.2559"/>
    <polygon points="237.51214 64.67797 227.90745 64.67797 227.90745 45.46859 227.90745 45.46529 227.90745 26.2559 227.90395 26.2559 227.90395 7.04652 218.29926 7.04652 218.29926 26.2559 218.30275 26.2559 218.30275 45.46529 218.30275 45.46859 218.30275 74.28267 227.90745 74.28267 237.51214 74.28267 247.11684 74.28267 256.72153 74.28267 256.72153 64.67797 247.11684 64.67797 237.51214 64.67797"/>
    <rect x="237.51214" y="83.88736" width="9.60469" height="9.60469"/>
    <polygon points="237.51214 122.31293 247.11684 122.31293 247.11684 141.52232 237.51214 141.52232 227.90745 141.52232 227.90745 122.30964 218.30275 122.30964 208.69806 122.30964 208.69806 141.52232 218.30275 141.52232 218.30275 151.12702 208.69806 151.12702 208.69806 160.73171 218.30275 160.73171 218.30275 170.3399 208.69806 170.3399 208.69806 208.76197 218.30275 208.76197 218.30275 208.75868 227.90745 208.75868 227.90745 208.76197 237.51214 208.76197 237.51214 237.57935 227.90745 237.57935 218.30275 237.57935 208.69806 237.57935 208.69806 247.18404 218.30275 247.18404 227.90745 247.18404 227.90745 285.60632 237.51214 285.60632 247.11684 285.60632 247.11684 266.39364 256.72153 266.39364 256.72153 256.78874 247.11684 256.78874 247.11684 237.57606 256.72153 237.57606 256.72153 218.36667 247.11684 218.36667 247.11684 199.15728 237.51214 199.15728 227.90745 199.15728 227.90745 189.54929 218.30275 189.54929 218.30275 179.9446 227.90745 179.9446 227.90745 151.12702 237.51214 151.12702 247.11684 151.12702 247.11684 179.9446 256.72153 179.9446 256.72153 122.30964 247.11684 122.30964 247.11684 103.10025 237.51214 103.10025 237.51214 122.31293"/>
    <rect x="247.11684" y="93.49556" width="9.60469" height="9.60469"/>
    <rect x="247.11684" y="189.54929" width="9.60469" height="9.60469"/>
    <polygon points="266.32952 16.65121 275.93092 16.65121 275.93092 7.04652 266.32952 7.04652 256.72482 7.04652 247.12013 7.04652 247.12013 16.65121 256.72482 16.65121 266.32952 16.65121"/>
    <polygon points="256.72482 45.46529 256.72482 45.46859 256.72482 55.06999 266.32952 55.06999 266.32952 45.46859 266.32952 45.46529 266.32952 26.2559 256.72482 26.2559 256.72482 45.46529"/>
    <rect x="256.72482" y="170.3399" width="9.60469" height="9.60469"/>
    <rect x="266.32952" y="83.88736" width="9.60469" height="9.60469"/>
    <polygon points="266.32952 285.60303 275.93421 285.60303 275.93421 285.60632 285.53891 285.60632 285.53891 276.00162 275.93421 276.00162 275.93421 266.39364 266.32952 266.39364 266.32952 285.60303"/>
    <polygon points="275.93421 7.04652 275.93421 26.25241 275.93421 26.2559 275.93421 45.46529 285.53891 45.46529 285.53891 26.2559 285.53891 26.25241 285.53891 7.04652 275.93421 7.04652"/>
    <polygon points="275.93421 64.67797 266.32952 64.67797 256.72482 64.67797 256.72482 74.28267 266.32952 74.28267 275.93421 74.28267 275.93421 74.28617 285.53891 74.28617 285.53891 45.46859 275.93421 45.46859 275.93421 64.67797"/>
    <polygon points="275.93421 103.10025 266.32952 103.10025 256.72482 103.10025 256.72482 112.70494 266.32952 112.70494 266.32952 131.91763 275.93421 131.91763 275.93421 141.52232 266.32952 141.52232 266.32952 170.3399 275.93421 170.3399 275.93421 179.9446 266.32952 179.9446 266.32952 199.15728 275.93421 199.15728 275.93421 189.55258 285.53891 189.55258 285.53891 160.73521 275.93421 160.73521 275.93421 151.12702 285.53891 151.12702 285.53891 122.31293 275.93421 122.31293 275.93421 112.70494 285.53891 112.70494 285.53891 93.49206 275.93421 93.49206 275.93421 103.10025"/>
    <polygon points="275.93421 208.76197 266.32952 208.76197 256.72482 208.76197 256.72482 218.36667 266.32952 218.36667 266.32952 237.57935 275.93421 237.57935 275.93421 247.18404 266.32952 247.18404 256.72482 247.18404 256.72482 256.78874 266.32952 256.78874 275.93421 256.78874 275.93421 266.39364 285.53891 266.39364 285.53891 208.75868 275.93421 208.75868 275.93421 208.76197"/>
  </g>
</svg>