<?xml version="1.0" encoding="UTF-8"?>
<svg id="Layer_3" data-name="Layer 3" xmlns="http://www.w3.org/2000/svg" viewBox="0 0 598.5 1296">
  <rect x="120" y="641" width="23.3" height="7.8"/>
  <polygon points="538.7 586.8 538.7 602.3 530.9 602.3 530.9 594.5 523.2 594.5 523.2 586.8 538.7 586.8"/>
  <rect x="275.1" y="641" width="7.8" height="7.8"/>
  <polygon points="608.4 509.2 600.7 509.2 600.7 501.7 600.4 501.5 592.9 501.5 592.9 493.7 585.2 493.7 585.2 486.2 584.9 486 577.4 486 577.4 478.2 585.2 478.2 585.2 485.7 585.4 486 592.9 486 592.9 478.2 600.7 478.2 600.7 470.5 608.4 470.5 608.4 462.7 616.2 462.7 616.2 455 623.9 455 623.9 462.7 616.2 462.7 616.2 470.5 623.9 470.5 623.9 478.2 600.7 478.2 600.7 501.2 600.9 501.5 608.4 501.5 608.4 509.2"/>
  <rect x="34.8" y="641" width="7.8" height="15.5"/>
  <path d="M414.6,641v7.8s7.7,0,7.7,0v7.8s-7.8,0-7.8,0v7.8s-7.8,0-7.8,0v23.2s-7.7,0-7.7,0v-7.8s-23.3,0-23.3,0v-23s-.3-.3-.3-.3h-7.5s0-15.5,0-15.5h7.8s0,15.2,0,15.2l.3.3h15.2s0-7.5,0-7.5l-.3-.3h-7.5s0-7.8,0-7.8h7.8s0,7.5,0,7.5l.3.3h7.2s.3-.3.3-.3v-7.5s15.5,0,15.5,0ZM399.4,648.8l-.3.3v7.5s7.8,0,7.8,0v-7.8s-7.5,0-7.5,0ZM399.1,672v-7.8s-15.5,0-15.5,0v7.8s15.5,0,15.5,0Z"/>
  <rect x="112.3" y="648.8" width="7.8" height="15.5"/>
  <polygon points="569.7 633.3 569.7 641 577.4 641 577.4 656.5 585.2 656.5 585.2 648.8 600.7 648.8 600.7 641 608.4 641 608.4 648.8 600.7 648.8 600.7 656.5 592.9 656.5 592.9 672 577.4 672 577.4 679.8 569.7 679.8 569.7 664.3 546.4 664.3 546.4 656.5 569.7 656.5 569.7 648.8 554.2 648.8 554.2 641.3 553.9 641 546.4 641 546.4 633.3 554.2 633.3 554.2 640.8 554.4 641 561.9 641 561.9 633.3 569.7 633.3"/>
  <rect x="530.9" y="633.3" width="7.8" height="7.8"/>
  <rect x="189.8" y="648.8" width="7.8" height="7.8"/>
  <path d="M437.9,633.3v7.8s7.8,0,7.8,0v15.5s15.5,0,15.5,0v-7.5s-.3-.3-.3-.3h-7.5s0-7.8,0-7.8h7.8s0,7.5,0,7.5l.3.3h30.7s0,7.8,0,7.8h7.8s0,7.8,0,7.8h-15.5s0,7.8,0,7.8h-15.5s0,7.7,0,7.7h-7.5s-.3.3-.3.3v7.5s-7.8,0-7.8,0v7.8s-7.8,0-7.8,0v-7.8s-7.8,0-7.8,0v-15.5s7.8,0,7.8,0v-7.8s-7.8,0-7.8,0v7.8s-15.5,0-15.5,0v-15.5s15.5,0,15.5,0v-7.8s-15.5,0-15.5,0v-7.8s7.8,0,7.8,0v-7.8s7.7,0,7.7,0ZM476.7,664.3v-7.8s-7.8,0-7.8,0v7.8s7.8,0,7.8,0ZM461.1,679.5v-7.5s-7.8,0-7.8,0v7.8s7.5,0,7.5,0l.3-.3Z"/>
  <rect x="259.6" y="648.8" width="7.8" height="15.5"/>
  <rect x="414.6" y="633.3" width="7.8" height="7.8"/>
  <polygon points="313.8 648.8 313.8 664.3 337.1 664.3 337.1 672 352.6 672 352.6 664.3 368.1 664.3 368.1 672 360.4 672 360.4 679.8 352.6 679.8 352.6 687.5 344.9 687.5 344.9 679.8 329.4 679.8 329.4 687.5 313.8 687.5 313.8 679.8 306.1 679.8 306.1 664.3 298.3 664.3 298.3 679.8 282.8 679.8 282.8 672 290.6 672 290.6 664.3 282.8 664.3 282.8 648.8 290.6 648.8 290.6 656.5 306.1 656.5 306.1 648.8 313.8 648.8"/>
  <rect x="112.3" y="633.3" width="7.8" height="7.8"/>
  <rect x="27" y="633.3" width="7.8" height="7.8"/>
  <polygon points="182.1 664.3 182.1 672 174.3 672 174.3 664.5 174 664.3 166.6 664.3 166.5 656.5 174.3 656.5 174.3 664 174.6 664.3 182.1 664.3"/>
  <polygon points="251.8 578.8 251.8 586.8 244.1 586.8 243.9 594.5 236.3 594.5 236.3 602.5 220.8 602.3 220.8 610 228.6 610 228.6 625.5 220.8 625.5 220.8 617.8 213.1 617.8 213.1 602.3 197.6 602.3 197.6 587 197.3 586.8 189.8 586.8 189.8 579 197.6 579 197.6 571.3 205.3 571.3 205.3 579 197.6 579 197.6 586.5 197.8 586.8 213.1 586.8 213.1 556 212.8 555.8 205.3 555.8 205.3 563.5 197.6 563.5 197.6 548 213.1 548 213.1 540.5 212.8 540.3 205.3 540.3 205.3 532.5 189.8 532.5 189.8 517.3 189.6 517 182.1 517 182.1 509.2 174.3 509.2 174.3 501.5 166.5 501.5 166.6 494 166.3 493.7 158.8 493.7 158.8 486 166.6 486 166.5 478.2 174.3 478.2 174.3 486 166.5 486 166.6 493.5 166.8 493.7 189.8 493.7 189.8 516.7 190.1 517 197.6 517 197.6 524.7 213.1 524.7 213.1 540 213.3 540.3 220.8 540.2 220.8 548 213.1 548 213.1 555.5 213.3 555.8 220.8 555.8 220.8 586.8 213.1 586.8 213.1 594.5 228.6 594.5 228.6 579 251.8 578.8"/>
  <rect x="523.2" y="625.5" width="7.7" height="7.8"/>
  <rect x="182.1" y="656.5" width="7.8" height="7.8"/>
  <polygon points="236.3 664.3 228.6 664.3 228.6 672 220.8 672 220.8 679.8 228.6 679.8 228.6 687.5 213.1 687.5 213.1 679.8 205.3 679.8 205.3 672 213.1 672 213.1 664.3 205.3 664.3 205.3 648.8 213.1 648.8 213.1 656.5 220.8 656.5 220.8 648.8 236.3 648.8 236.3 641.3 236.1 641 220.8 641 220.8 633.3 236.3 633.3 236.3 625.5 244.1 625.5 244.1 633.3 236.3 633.3 236.3 640.8 236.6 641 244.1 641 244.1 648.8 236.3 648.8 236.3 664.3"/>
  <polygon points="-19.5 664.3 -19.5 703 -11.7 703.1 -11.8 687.5 3.8 687.5 3.8 695.3 -4 695.3 -4 710.8 -19.5 710.8 -19.5 718.6 -35 718.6 -35 726.3 -42.8 726.3 -42.8 734.1 -50.5 734.1 -50.5 718.6 -58.3 718.6 -58.3 710.8 -66 710.8 -66 703.1 -35 703.1 -35 710.8 -27.3 710.8 -27.3 695.3 -35 695.3 -35 679.8 -27.3 679.8 -27.3 664.3 -19.5 664.3"/>
  <path d="M104.5,625.5v7.8s-7.8,0-7.8,0v7.8s-7.8,0-7.8,0v7.8s7.8,0,7.8,0v7.8s7.8,0,7.8,0v7.8s7.8,0,7.8,0v7.8s23.3,0,23.3,0v15.5s7.7,0,7.7,0v7.8s-7.8,0-7.8,0v15.5s7.5,0,7.5,0l.3-.3v-15.2s7.8,0,7.8,0v-7.8s23.3,0,23.3,0v15.5s7.8,0,7.8,0v-15.5s7.8,0,7.8,0v-15.5s7.8,0,7.8,0v31s7.8,0,7.8,0v-15.5s7.8,0,7.8,0v23.3s-7.8,0-7.8,0v7.8s-7.8,0-7.8,0v15.5s-7.8,0-7.8,0v7.8s31,0,31,0v7.8s7.8,0,7.8,0v7.7s-15.2,0-15.2,0l-.3.3v15.2s-7.7,0-7.7,0v-7.8s-7.8,0-7.8,0v-7.8s-7.8,0-7.8,0v7.8s-15.5,0-15.5,0v-15.5s7.8,0,7.8,0v-15.5s-7.8,0-7.8,0v15.5s-7.8,0-7.8,0v15.5s-7.8,0-7.8,0v7.8s-7.8,0-7.8,0v-15.5s-7.7,0-7.7,0v-15.5s-7.8,0-7.8,0v-7.8s-7.8,0-7.8,0v-7.8s-7.8,0-7.8,0v-7.8s7.8,0,7.8,0v-7.8s-7.8,0-7.8,0v-7.8s7.8,0,7.8,0v-23.2s-7.8,0-7.8,0v7.8s-15.3,0-15.3,0l-.3.3v7.5s-7.8,0-7.8,0v7.8s-7.8,0-7.8,0v-7.8s-15.5,0-15.5,0v-7.8s-7.8,0-7.8,0v-7.8s7.8,0,7.8,0v-15.5s7.7,0,7.7,0v7.8s15.5,0,15.5,0v-7.8s-7.7,0-7.7,0v-7.8s-23.3,0-23.3,0v23.3s-7.8,0-7.8,0v-7.8s-7.8,0-7.8,0v7.8s-7.8,0-7.8,0v7.8s-7.8,0-7.8,0v-7.8s7.8,0,7.8,0v-23.2s7.8,0,7.8,0v7.8s7.8,0,7.8,0v-15.5s23.3,0,23.3,0v-15.5s7.8,0,7.8,0v-7.8s15.5,0,15.5,0ZM104.5,687.3v-7.5s-15.5,0-15.5,0v7.8s15.2,0,15.2,0l.3-.3ZM143.3,718.6h-7.8s0,7.8,0,7.8h7.8s0,7.8,0,7.8h7.8s0-7.8,0-7.8h7.5s.3-.3.3-.3v-7.5s-7.8,0-7.8,0v-7.8s7.8,0,7.8,0v-7.8s-7.8,0-7.8,0v7.8s-7.5,0-7.5,0l-.3.3v7.5ZM158.8,726.6v15.2s-7.8,0-7.8,0v7.8s7.8,0,7.8,0v-7.8s7.8,0,7.8,0v-15.5s23.3,0,23.3,0v-15.5s-15.5,0-15.5,0v7.8s-7.8,0-7.8,0v7.8s-7.5,0-7.5,0l-.3.3ZM213.1,757.1v-7.5s-7.8,0-7.8,0v7.8s7.5,0,7.5,0l.3-.3Z"/>
  <polygon points="344.9 501.5 329.3 501.5 329.3 486 337.1 486 337.1 493.7 344.9 493.7 344.9 501.5"/>
  <rect x="151" y="664.3" width="7.8" height="15.5"/>
  <rect x="197.6" y="664.3" width="7.8" height="7.8"/>
  <rect x="515.4" y="617.8" width="7.8" height="7.8"/>
  <polygon points="259.6 664.3 259.6 679.8 251.8 679.8 251.8 672 236.3 672 236.3 664.3 259.6 664.3"/>
  <polygon points="507.7 617.8 507.7 641 515.4 641 515.4 633.3 523.2 633.3 523.2 641 530.9 641 530.9 648.8 523.2 648.8 523.2 656.5 507.7 656.5 507.6 648.8 492.1 648.8 492.2 633.3 484.4 633.3 484.4 625.5 499.9 625.5 499.9 617.8 507.7 617.8"/>
  <rect x="352.6" y="493.7" width="7.8" height="7.8"/>
  <polygon points="437.9 633.3 437.9 625.5 445.6 625.5 445.6 617.8 437.9 617.8 437.9 625.5 430.1 625.5 430.1 633.3 422.4 633.3 422.4 610 430.1 610 430.1 602.3 414.6 602.3 414.6 594.5 399.1 594.5 399.1 586.8 406.9 586.8 406.9 579 414.6 579 414.6 586.8 422.4 586.8 422.4 571.5 422.1 571.3 414.6 571.3 414.6 563.8 414.4 563.5 399.1 563.5 399.1 555.8 406.9 555.8 406.9 548.3 406.6 548 391.4 548 391.4 532.5 383.6 532.5 383.6 540.3 368.1 540.3 368.1 532.5 375.9 532.5 375.9 525 375.6 524.7 360.4 524.7 360.4 532.5 352.6 532.5 352.6 517 360.4 517 360.4 501.5 375.9 501.5 375.9 493.7 383.6 493.7 383.6 501.5 375.9 501.5 375.9 509.2 368.1 509.2 368.1 517 375.9 517 375.9 524.5 376.1 524.7 391.4 524.8 391.4 517 399.1 517 399.1 540.2 406.9 540.3 406.9 547.7 407.1 548 414.6 548 414.6 540.2 422.4 540.2 422.4 548 414.6 548 414.6 563.3 414.9 563.5 422.4 563.5 422.4 555.8 437.9 555.8 437.9 548 445.6 548 445.6 540.2 453.4 540.2 453.4 548 445.6 548 445.6 563.5 422.4 563.5 422.4 571 422.6 571.3 437.9 571.3 437.9 579 430.1 579 430.1 586.8 422.4 586.8 422.4 594.5 445.6 594.5 445.6 602.3 453.4 602.3 453.4 617.8 461.1 617.8 461.1 625.5 453.4 625.5 453.4 633.3 437.9 633.3"/>
  <polygon points="282.8 664.3 282.8 672 275.1 672 275.1 679.8 282.8 679.8 282.8 687.5 275.1 687.5 275.1 695.3 267.3 695.3 267.3 710.8 275.1 710.8 275.1 703.1 282.8 703.1 282.8 718.6 267.3 718.6 267.3 726.3 259.6 726.3 259.6 718.6 244.1 718.6 244.1 710.8 251.8 710.8 251.8 703.1 244.1 703.1 244.1 695.3 251.8 695.3 251.8 687.5 267.3 687.5 267.3 664.3 282.8 664.3"/>
  <polygon points="592.9 540.3 585.2 540.3 585.2 532.8 584.9 532.5 577.4 532.5 577.4 524.7 569.7 524.7 569.7 532.5 561.9 532.5 561.9 509.2 569.7 509.2 569.7 517 592.9 517 592.9 509.2 600.7 509.2 600.7 517 608.4 517 608.4 524.5 608.7 524.7 623.9 524.7 623.9 509.2 631.7 509.2 631.9 501.5 639.4 501.5 639.4 493.5 647.2 493.7 647.2 509 647.5 509.2 670.4 509.2 670.5 517 662.7 517 662.7 524.7 670.5 524.7 670.5 540.2 662.7 540.3 662.7 532.5 654.9 532.5 655 524.7 647.2 524.7 647.2 532.5 639.4 532.5 639.4 540.3 631.7 540.3 631.7 532.5 639.4 532.5 639.4 524.7 647.2 524.7 647.2 509.5 646.9 509.2 631.7 509.2 631.7 524.7 623.9 524.7 623.9 532.5 608.4 532.5 608.4 525 608.2 524.7 585.2 524.7 585.2 532.2 585.4 532.5 592.9 532.5 592.9 540.3"/>
  <rect x="166.5" y="672" width="7.8" height="7.8"/>
  <polygon points="422.4 672 422.4 679.8 430.1 679.8 430.1 687.5 422.4 687.6 422.4 703.1 406.9 703.1 406.9 695.3 414.6 695.3 414.6 672 422.4 672"/>
  <rect x="321.6" y="501.5" width="7.8" height="7.8"/>
  <rect x="50.3" y="679.8" width="7.8" height="7.8"/>
  <polygon points="352.6 501.5 352.6 517 329.4 517 329.4 509.2 344.9 509.2 344.9 501.5 352.6 501.5"/>
  <rect x="143.3" y="679.8" width="7.8" height="7.8"/>
  <rect x="174.3" y="679.8" width="7.8" height="7.8"/>
  <rect x="290.6" y="617.8" width="7.8" height="7.7"/>
  <polygon points="158.8 617.8 158.8 656.5 151 656.5 151 664.3 143.3 664.3 143.3 672 135.5 672 135.5 664.3 127.8 664.3 127.8 656.5 143.3 656.5 143.3 648.8 151 648.8 151 641 143.3 641 143.3 625.5 151 625.5 151 617.8 158.8 617.8"/>
  <polygon points="73.5 617.8 73.5 625.5 81.3 625.5 81.3 633.3 73.5 633.3 73.5 641 65.8 641 65.8 625.5 58 625.5 58 641 50.3 641 50.3 633.3 42.5 633.3 42.5 625.5 34.8 625.5 34.8 617.8 73.5 617.8"/>
  <rect x="360.4" y="679.8" width="15.5" height="7.8"/>
  <rect x="561.9" y="679.8" width="7.7" height="7.8"/>
  <polygon points="344.9 687.5 344.9 695.3 337.1 695.3 337.1 703.1 329.3 703.1 329.4 687.5 344.9 687.5"/>
  <rect x="352.6" y="687.5" width="7.8" height="7.8"/>
  <rect x="523.2" y="610" width="7.8" height="7.8"/>
  <polygon points="65.8 703.1 58 703.1 58 710.8 50.3 710.8 50.3 703.1 42.5 703.1 42.5 695.3 65.8 695.3 65.8 703.1"/>
  <polygon points="120 703.1 112.3 703.1 112.3 710.8 120 710.8 120 718.6 112.3 718.6 112.3 726.3 104.5 726.3 104.5 695.3 120 695.3 120 703.1"/>
  <polygon points="120 610 120 617.8 127.8 617.8 127.8 633.3 120 633.3 120 625.5 104.5 625.5 104.5 617.8 112.3 617.8 112.3 610 120 610"/>
  <rect x="19.3" y="703.1" width="7.8" height="7.8"/>
  <polygon points="492.1 540.3 484.4 540.3 484.4 555.8 476.6 555.8 476.6 563.5 484.4 563.5 484.4 571.3 492.2 571.3 492.1 586.8 499.9 586.8 499.9 594.5 484.4 594.5 484.4 579 468.9 579 468.9 571.3 461.1 571.3 461.1 563.5 468.9 563.5 468.9 548 476.6 548 476.6 517 484.4 517 484.4 532.5 492.2 532.5 492.1 540.3"/>
  <polygon points="530.9 532.5 523.2 532.5 523.2 540.3 515.4 540.3 515.4 524.8 523.2 524.7 523.2 517 530.9 517 530.9 532.5"/>
  <polygon points="81.3 726.3 73.5 726.3 73.5 710.8 65.8 710.8 65.8 703.1 81.3 703.1 81.3 726.3"/>
  <rect x="197.6" y="641" width="7.8" height="7.8"/>
  <rect x="27" y="710.8" width="7.8" height="7.8"/>
  <rect x="476.6" y="710.8" width="15.5" height="7.8"/>
  <rect x="507.7" y="602.3" width="7.8" height="15.5"/>
  <polygon points="515.4 540.3 515.4 555.8 507.7 555.8 507.7 548 499.9 548 499.9 555.8 492.1 555.8 492.1 540.3 499.9 540.3 499.9 532.5 507.7 532.5 507.7 540.3 515.4 540.3"/>
  <rect x="530.9" y="532.5" width="7.8" height="7.8"/>
  <polygon points="546.4 563.5 530.9 563.5 530.9 579 523.2 579 523.2 540.3 530.9 540.3 530.9 555.8 538.7 555.8 538.7 540.3 546.4 540.3 546.4 532.5 554.2 532.5 554.2 540.2 546.4 540.3 546.4 563.5"/>
  <rect x="143.3" y="718.6" width="7.8" height="7.7"/>
  <path d="M352.6,602.3v15.5s7.8,0,7.8,0v15.5s-7.5,0-7.5,0l-.3.3v7.5s7.8,0,7.8,0v7.8s-15.5,0-15.5,0v15.5s-7.7,0-7.7,0v-23.3s-15.5,0-15.5,0v7.5s.3.3.3.3h7.5s0,7.8,0,7.8h-7.8s0-7.5,0-7.5l-.3-.3h-7.5s0-23.3,0-23.3h-7.8s0-7.8,0-7.8h-7.8s0-7.8,0-7.8h15.5s0,7.8,0,7.8h7.8s0,15.5,0,15.5h7.8s0-7.8,0-7.8h7.8s0-15.5,0-15.5h7.8s0-7.8,0-7.8h7.8ZM352.6,633v-7.5s-7.8,0-7.8,0v7.8s7.5,0,7.5,0l.3-.3Z"/>
  <polygon points="298.3 610 290.6 610 290.6 617.8 282.8 617.8 282.8 602.3 298.3 602.3 298.3 610"/>
  <polygon points="213.1 718.6 213.1 726.3 220.8 726.3 220.8 734.1 205.3 734.1 205.3 718.6 213.1 718.6"/>
  <rect x="461.1" y="718.6" width="15.5" height="7.8"/>
  <polygon points="585.2 540.3 585.2 571.3 577.4 571.3 577.4 579 569.7 579 569.7 571.3 561.9 571.3 561.9 579 554.2 579 554.2 571.3 546.4 571.3 546.4 563.5 554.2 563.5 554.2 548 561.9 548 561.9 563.5 577.4 563.5 577.4 540.3 585.2 540.3"/>
  <rect x="561.9" y="726.3" width="7.8" height="7.8"/>
  <rect x="592.9" y="540.3" width="15.5" height="7.8"/>
  <polygon points="42.5 571.3 34.8 571.3 34.8 586.8 27 586.8 27 556 26.8 555.8 19.3 555.8 19.3 548 27 548 27 555.5 27.3 555.8 34.8 555.8 34.8 563.5 42.5 563.5 42.5 555.8 50.3 555.8 50.3 563.5 42.5 563.5 42.5 571.3"/>
  <rect x="135.5" y="757.3" width="7.8" height="7.8"/>
  <polygon points="267.5 571.3 267.3 579 251.8 578.8 251.8 571.3 244.1 571.3 244.1 563.5 251.8 563.5 251.8 555.8 259.6 555.8 259.6 571.3 267.5 571.3"/>
  <polygon points="275.1 579 275.1 571.3 267.5 571.3 267.3 555.8 275.1 555.8 275.1 563.5 282.8 563.5 282.8 579 275.1 579"/>
  <path d="M608.4,555.8v23.3s-7.8,0-7.8,0v7.8s7.8,0,7.8,0v-7.8s7.7,0,7.7,0v23.3s-23.3,0-23.3,0v15.5s15.5,0,15.5,0v15.5s-7.8,0-7.8,0v-7.8s-15.5,0-15.5,0v7.5s.3.3.3.3h7.5s0,7.8,0,7.8h-7.8s0-7.5,0-7.5l-.3-.3h-15.2s0-7.8,0-7.8h-7.8s0-15.5,0-15.5h-7.8s0,7.8,0,7.8h-7.8s0,7.8,0,7.8h-15.5s0-7.8,0-7.8h7.8s0-7.8,0-7.8h7.8s0-7.8,0-7.8h15.5s0-7.8,0-7.8h-7.8s0-7.8,0-7.8h15.5s0,7.8,0,7.8h7.8s0-7.8,0-7.8h7.8s0-15.5,0-15.5h7.8s0-15.5,0-15.5h15.5ZM585.2,617.8v-15.5s-15.5,0-15.5,0v15.5s15.5,0,15.5,0Z"/>
  <rect x="166.6" y="765.1" width="7.8" height="15.5"/>
  <rect x="96.8" y="772.8" width="7.8" height="7.8"/>
  <rect x="329.4" y="594.5" width="15.5" height="7.8"/>
  <path d="M158.8,617.8v-7.8s-15.5,0-15.5,0v-7.8s-7.8,0-7.8,0v15.5s-7.7,0-7.7,0v-7.8s-7.8,0-7.8,0v-23.2s7.8,0,7.8,0v7.8s7.8,0,7.8,0v-15.5s15.5,0,15.5,0v-7.8s23.3,0,23.3,0v-7.8s15.5,0,15.5,0v7.8s-7.8,0-7.8,0v23.2s-7.5,0-7.5,0l-.3.3v7.5s7.8,0,7.8,0v23s.3.3.3.3h7.5s0,7.8,0,7.8h-7.8s0-7.5,0-7.5l-.3-.3h-7.5s0,7.8,0,7.8h-7.8s0-7.8,0-7.8h7.8s0-15.5,0-15.5h-7.8s0,7.8,0,7.8h-7.8ZM174.3,594.3v-15.2s-15.5,0-15.5,0v7.8s-15.5,0-15.5,0v7.8s30.8,0,30.8,0l.3-.3Z"/>
  <polygon points="329.3 594.5 321.6 594.5 321.6 587 321.3 586.8 306.1 586.8 306.1 594.5 290.6 594.5 290.6 579 298.3 579 298.3 586.8 306.1 586.8 306.1 579 313.8 579 313.8 571.5 313.6 571.3 306.1 571.3 306.1 563.5 313.8 563.5 313.8 571 314.1 571.3 321.6 571.3 321.6 586.5 321.9 586.8 329.3 586.8 329.3 594.5"/>
  <polygon points="399.1 579 399.1 586.8 391.4 586.8 391.4 617.8 399.1 617.8 399.1 633.3 368.1 633.3 368.1 617.8 375.9 617.8 375.9 625.5 383.6 625.5 383.6 610 375.9 610 375.9 594.5 368.1 594.5 368.1 602.3 352.6 602.3 352.6 594.5 360.4 594.5 360.4 586.8 383.6 586.8 383.6 579.3 383.3 579 375.9 579 375.9 563.5 383.6 563.5 383.6 578.8 383.9 579 399.1 579"/>
  <polygon points="523.2 579 523.2 586.8 499.9 586.8 499.9 579 507.7 579 507.7 571.3 499.9 571.3 499.9 563.5 515.4 563.5 515.4 579 523.2 579"/>
  <polygon points="166.6 780.6 166.6 788.3 158.8 788.3 158.8 796.1 151 796.1 151 788.3 143.3 788.3 143.3 780.6 166.6 780.6"/>
  <rect x="236.3" y="780.6" width="7.8" height="7.8"/>
  <polygon points="50.3 594.5 34.8 594.5 34.8 586.8 42.5 586.8 42.5 571.3 50.3 571.3 50.3 594.5"/>
  <rect x="313.8" y="594.5" width="7.8" height="15.5"/>
  <rect x="399.1" y="571.3" width="7.8" height="7.8"/>
  <polygon points="499.9 617.8 484.4 617.8 484.4 625.5 476.6 625.5 476.6 641 468.9 641 468.9 617.8 476.6 617.8 476.6 610 468.9 610 468.9 602.5 468.6 602.3 461.1 602.3 461.1 594.5 453.4 594.5 453.4 587 453.1 586.8 445.6 586.8 445.6 571.3 453.4 571.3 453.4 586.5 453.6 586.8 476.6 586.8 476.7 594.5 468.9 594.5 468.9 602 469.1 602.3 484.4 602.3 484.4 610 492.2 610 492.1 602.3 499.9 602.3 499.9 617.8"/>
  <polygon points="251.8 788.3 251.8 796.1 259.6 796.1 259.6 803.8 244.1 803.8 244.1 788.3 251.8 788.3"/>
  <polygon points="251.8 594.5 251.8 602.3 259.6 602.3 259.6 617.8 251.8 617.8 251.8 610 236.3 610 236.3 602.5 244.1 602.3 243.9 594.5 251.8 594.5"/>
  <polygon points="104.5 617.8 96.8 617.8 96.8 610 89 610 89 617.8 73.5 617.8 73.5 610 65.8 610 65.8 602.3 50.3 602.3 50.3 594.5 73.5 594.5 73.5 602.3 89 602.3 89 594.5 96.8 594.5 96.8 586.8 104.5 586.8 104.5 579 112.3 579 112.3 586.8 104.5 586.8 104.5 594.5 96.8 594.5 96.8 602.3 104.5 602.3 104.5 617.8"/>
  <rect x="259.6" y="788.3" width="7.8" height="7.8"/>
  <polygon points="275.1 579 275.1 587 267.3 586.8 267.3 579 275.1 579"/>
  <rect x="143.3" y="796.1" width="7.8" height="7.8"/>
  <rect x="538.7" y="579" width="15.5" height="7.8"/>
  <rect x="58" y="834.8" width="7.8" height="7.8"/>
  <path d="M34.8,594.5v7.5s.3.3.3.3h7.5s0,7.8,0,7.8h-7.8s0-7.5,0-7.5l-.3-.3h-7.5s0,31,0,31h-7.8s0,15.5,0,15.5h7.8s0,7.8,0,7.8h7.8s0,15.5,0,15.5h-7.8s0-7.7,0-7.7H3.8s0,7.8,0,7.8h15.5s0,15.5,0,15.5h7.8s0,7.8,0,7.8h-7.8s0,7.8,0,7.8h-7.8s0-15.5,0-15.5H3.8s0-7.8,0-7.8h-15.5s0-7.7,0-7.7H-4s0-23.3,0-23.3h-7.8s0-7.8,0-7.8H-4s0-7.8,0-7.8h15.5s0-7.7,0-7.7H3.7s0-15.2,0-15.2l-.3-.3h-7.5s0,7.8,0,7.8h-7.8s0-15.5,0-15.5H-4s0-7.8,0-7.8H3.8s0-7.8,0-7.8h7.8s0,7.8,0,7.8H3.7s0,15.2,0,15.2l.3.3h7.5s0,7.8,0,7.8h7.8s0-23.3,0-23.3h15.5ZM11.5,656.5v-15.5s-7.8,0-7.8,0v15.5s7.8,0,7.8,0Z"/>
  <polygon points="89 834.8 89 842.8 81.3 842.6 81.3 834.6 89 834.8"/>
  <rect x="251.8" y="586.8" width="15.5" height="7.8"/>
  <polygon points="282.8 602.3 275.1 602.3 275.1 625.5 290.6 625.5 290.6 633.3 298.3 633.3 298.3 625.5 306.1 625.5 306.1 641 282.8 641 282.8 633.3 275.1 633.3 275.1 641 259.6 641 259.6 633.5 259.3 633.3 251.8 633.3 251.8 625.5 259.6 625.5 259.6 633 259.8 633.3 267.3 633.3 267.3 594.5 275.1 594.5 275.1 587 282.8 586.8 282.8 602.3"/>
  <rect x="344.9" y="586.8" width="7.8" height="7.8"/>
  <path d="M546.4,927.9v7.8s-15.5,0-15.5,0v7.8s15.5,0,15.5,0v-7.8s15.5,0,15.5,0v7.8s-7.8,0-7.8,0v7.8s7.8,0,7.8,0v7.8s-7.8,0-7.8,0v7.8s-15.5,0-15.5,0v-7.8s7.8,0,7.8,0v-7.8s-7.8,0-7.8,0v7.8s-7.8,0-7.8,0v-7.8s-7.8,0-7.8,0v15.5s7.8,0,7.8,0v7.8s-7.8,0-7.8,0v7.8s-7.8,0-7.8,0v7.8s23,0,23,0l.3-.3v-7.5s-7.8,0-7.8,0v-7.8s31,0,31,0v-15.5s7.8,0,7.8,0v-7.8s15.2,0,15.2,0l.3-.3v-7.5s15.5,0,15.5,0v-7.8s7.8,0,7.8,0v-7.8s7.8,0,7.8,0v-15.5s7.8,0,7.8,0v7.8s7.8,0,7.8,0v-7.8s7.7,0,7.7,0v7.8s15.5,0,15.5,0v7.8s-7.8,0-7.8,0v15.5s7.8,0,7.8,0v7.8s-15.2,0-15.2,0l-.3.3v7.5s15.5,0,15.5,0v15.5s-15.5,0-15.5,0v7.8s-15.5,0-15.5,0v7.8s7.8,0,7.8,0v7.8s-7.8,0-7.8,0v7.8s7.8,0,7.8,0v-7.8s7.8,0,7.8,0v-7.8s7.8,0,7.8,0v15.5s7.7,0,7.7,0v15.5s-7.8,0-7.8,0v7.8s7.8,0,7.8,0v-7.8s15.5,0,15.5,0v69.7s-7.8,0-7.8,0v7.7s7.8,0,7.8,0v100.7s-7.8,0-7.8,0v7.7s7.8,0,7.8,0v352.6s-348.9,17.1-348.9,17.1v-7.2s-7.8,0-7.8,0v7.2s-248.1,0-248.1,0v-7.2s-7.8,0-7.8,0v7.2s-38.8,0-38.8,0v-7.2s-7.8,0-7.8,0v7.2s-116.3-17.1-116.3-17.1v-282.8s7.8,0,7.8,0v-15.5s-7.8,0-7.8,0v-69.7s7.5,0,7.5,0l.3-.2v-15.2s23.3,0,23.3,0v-15.5s-7.8,0-7.8,0v7.8s-15.5,0-15.5,0v7.8s-7.8,0-7.8,0v-46.5s7.8,0,7.8,0v-7.7s-7.8,0-7.8,0v-38.7s7.8,0,7.8,0v-7.7s7.8,0,7.8,0v7.7s7.5,0,7.5,0l.3-.3v-7.5s7.8,0,7.8,0v-7.8s7.8,0,7.8,0v-7.8s7.8,0,7.8,0v7.8s23.2,0,23.2,0v-7.8s-7.7,0-7.7,0v-7.8s-7.7,0-7.7,0v-7.8s15.2,0,15.2,0l.3-.3v-7.5s-15.5,0-15.5,0v7.8s-15.5,0-15.5,0v15.5s-7.7,0-7.7,0v-31s7.8,0,7.8,0v-7.7s7.8,0,7.8,0v7.8s15.5,0,15.5,0v-7.8s7.8,0,7.8,0v-7.8s7.8,0,7.8,0v-7.8s-7.8,0-7.8,0v-7.8s7.8,0,7.8,0v-7.8s7.8,0,7.8,0v23.2s7.8,0,7.8,0v-23.3s7.8,0,7.8,0v-15.5s7.8,0,7.8,0v-7.8s7.8,0,7.8,0v7.8s7.8,0,7.8,0v7.8s7.8,0,7.8,0v38.7s-7.8,0-7.8,0v15.5s-15.5,0-15.5,0v7.8s-15.5,0-15.5,0v-7.8s-7.5,0-7.5,0l-.3.3v15.3s15.5,0,15.5,0v7.8s7.8,0,7.8,0v7.8s7.8,0,7.8,0v-7.8s7.8,0,7.8,0v-7.8s-7.8,0-7.8,0v-7.8s7.8,0,7.8,0v-7.8s7.8,0,7.8,0v-7.8s15.5,0,15.5,0v-7.8s7.8,0,7.8,0v-7.8s-7.8,0-7.8,0v-31s7.8,0,7.8,0v23.2s7.8,0,7.8,0v15.5s7.7,0,7.7,0v7.8s15.5,0,15.5,0v-7.8s-7.8,0-7.8,0v-7.8s7.8,0,7.8,0v-7.8s-7.8,0-7.8,0v7.8s-7.8,0-7.8,0v-15.5s-7.8,0-7.8,0v-23.2s7.8,0,7.8,0v15.5s7.8,0,7.8,0v7.8s7.8,0,7.8,0v-7.8s7.8,0,7.8,0v-7.8s7.8,0,7.8,0v7.8s7.8,0,7.8,0v7.8s7.8,0,7.8,0v-7.8s7.7,0,7.7,0v31s7.8,0,7.8,0v7.7s7.8,0,7.8,0v7.8s7.8,0,7.8,0v7.8s-7.8,0-7.8,0v7.8s7.8,0,7.8,0v7.8s-7.8,0-7.8,0v15.5s23.3,0,23.3,0v-7.8s7.5,0,7.5,0l.3-.3v-15.2s7.8,0,7.8,0v-7.8s7.8,0,7.8,0v-7.8s7.8,0,7.8,0v-7.8s7.7,0,7.7,0v7.8s7.8,0,7.8,0v7.8s23,0,23,0l.3-.3v-7.5s-7.8,0-7.8,0v-7.8s7.8,0,7.8,0v-7.8s7.8,0,7.8,0v-7.8s-7.8,0-7.8,0v-7.8s-7.8,0-7.8,0v-7.8s7.8,0,7.8,0v-7.8s-7.8,0-7.8,0v-7.8s-7.8,0-7.8,0v-7.8s7.8,0,7.8,0v-7.8s7.8,0,7.8,0v-15.5s7.7,0,7.7,0v-7.8s15.5,0,15.5,0v7.8s-7.8,0-7.8,0v7.8s-7.8,0-7.8,0v15.5s-7.8,0-7.8,0v7.8s7.8,0,7.8,0v23.2s7.8,0,7.8,0v-15.5s15.5,0,15.5,0v7.8s15.5,0,15.5,0v7.8s-7.8,0-7.8,0v7.8s7.8,0,7.8,0v-7.8s7.5,0,7.5,0l.3-.3v-7.5s7.8,0,7.8,0v-7.8s-7.8,0-7.8,0v-7.8s7.8,0,7.8,0v-7.8s7.8,0,7.8,0v-7.8s-15.5,0-15.5,0v-15.5s7.8,0,7.8,0v7.8s7.8,0,7.8,0v-15.5s7.7,0,7.7,0v15.5s15.5,0,15.5,0v15.5s-7.8,0-7.8,0v7.8s-7.8,0-7.8,0v7.8s-7.8,0-7.8,0v23.2s7.8,0,7.8,0v-15.5s7.8,0,7.8,0v15.5s23.3,0,23.3,0v-15.5s-15.5,0-15.5,0v-15.5s23,0,23,0l.3-.3v-7.5s-7.8,0-7.8,0v-7.8s23.3,0,23.3,0v-7.8s7.8,0,7.8,0v7.8s7.8,0,7.8,0v-7.8s15.5,0,15.5,0v-7.8s7.8,0,7.8,0v15.5s-15.5,0-15.5,0v15.5s7.5,0,7.5,0l.3-.3v-7.5s7.8,0,7.8,0v-7.8s7.8,0,7.8,0v7.8s15.2,0,15.2,0l.3-.3v-7.5s7.8,0,7.8,0v-15.5s7.7,0,7.7,0v15.5s15.5,0,15.5,0v7.8s-15.5,0-15.5,0v7.8s7.8,0,7.8,0v7.8s-7.8,0-7.8,0v7.8s-23,0-23,0l-.3.3v7.5s-7.8,0-7.8,0v15.5s7.8,0,7.8,0v-15.5s23.2,0,23.2,0v7.8s7.8,0,7.8,0v-23.2s15.5,0,15.5,0v7.8s15.2,0,15.2,0l.3-.3v-7.5s15.5,0,15.5,0v-7.8s7.8,0,7.8,0v-7.8s7.8,0,7.8,0v-7.8s-7.8,0-7.8,0v-15.5s-7.8,0-7.8,0v15.5s-15.5,0-15.5,0v7.8s-15.5,0-15.5,0v-7.8s7.7,0,7.7,0v-23.2s31,0,31,0v-7.8s15.5,0,15.5,0v-7.8s15.5,0,15.5,0v-15.5s7.8,0,7.8,0v15.5s7.7,0,7.7,0ZM639.4,950.9v-7.5s-7.8,0-7.8,0v-15.5s-7.8,0-7.8,0v7.8s-7.8,0-7.8,0v7.8s7.8,0,7.8,0v7.8s15.2,0,15.2,0l.3-.3ZM515.4,958.9v-7.8s-7.8,0-7.8,0v7.8s7.8,0,7.8,0ZM585.2,966.7h-15.5s0,7.8,0,7.8h15.5s0,7.8,0,7.8h-23.2s0,7.8,0,7.8h-7.8s0,7.8,0,7.8h7.8s0,15.5,0,15.5h-7.8s0,7.8,0,7.8h-7.8s0,7.8,0,7.8h-7.8s0,15.5,0,15.5h-7.8s0,7.8,0,7.8h-7.5s-.3.3-.3.3v7.5s-7.8,0-7.8,0v7.8s7.8,0,7.8,0v-7.8s7.5,0,7.5,0l.3-.3v-7.5s7.8,0,7.8,0v-7.8s7.8,0,7.8,0v-7.8s7.8,0,7.8,0v-7.8s7.8,0,7.8,0v7.8s7.8,0,7.8,0v-15.5s-7.8,0-7.8,0v-7.8s15.5,0,15.5,0v-23.2s7.5,0,7.5,0l.3-.3v-7.5s15.5,0,15.5,0v23.3s7.8,0,7.8,0v7.8s-7.8,0-7.8,0v7.8s7.8,0,7.8,0v-7.8s7.5,0,7.5,0l.3-.3v-15.2s-7.8,0-7.8,0v-15.5s7.8,0,7.8,0v-15.5s-7.8,0-7.8,0v7.8s-7.8,0-7.8,0v-7.8s-7.8,0-7.8,0v-15.5s-7.5,0-7.5,0l-.3.3v15.2ZM608.4,958.9v-7.8s-7.8,0-7.8,0v7.8s7.8,0,7.8,0ZM631.7,966.7v-7.8s-7.8,0-7.8,0v7.8s7.8,0,7.8,0ZM360.4,997.4v-7.5s15.5,0,15.5,0v-7.8s-7.7,0-7.7,0v-7.8s-15.5,0-15.5,0v7.8s-7.5,0-7.5,0l-.3.3v30.7s7.8,0,7.8,0v-15.5s7.5,0,7.5,0l.3-.3ZM422.6,974.4l-.3.3v7.5s7.8,0,7.8,0v-7.8s-7.5,0-7.5,0ZM391.6,982.2l-.3.3v7.5s7.8,0,7.8,0v-7.8s-7.5,0-7.5,0ZM19.3,1005.4v-15.5s-7.8,0-7.8,0v15.5s7.8,0,7.8,0ZM414.6,997.4v-7.5s-7.8,0-7.8,0v7.8s7.5,0,7.5,0l.3-.3ZM476.6,997.9v15.2s15.5,0,15.5,0v-7.8s7.8,0,7.8,0v-7.8s7.8,0,7.8,0v-7.8s-7.8,0-7.8,0v7.8s-7.8,0-7.8,0v7.8s-7.8,0-7.8,0v-7.8s-7.5,0-7.5,0l-.3.3ZM538.9,989.9l-.3.3v7.5s7.8,0,7.8,0v-7.8s-7.5,0-7.5,0ZM585.5,989.9l-.3.3v23s7.8,0,7.8,0v-23.2s-7.5,0-7.5,0ZM360.6,997.7l-.3.3v7.5s7.5,0,7.5,0l.3-.3v-7.5s-7.5,0-7.5,0ZM383.6,1005.2v-7.5s-7.8,0-7.8,0v7.8s-7.5,0-7.5,0l-.3.3v7.5s7.8,0,7.8,0v-7.8s7.5,0,7.5,0l.3-.3ZM-4,1028.7v-7.8s7.7,0,7.7,0v-15.5s-7.8,0-7.8,0v15.5s-7.8,0-7.8,0v7.8s7.8,0,7.8,0ZM104.5,1020.9h7.8s0-15.5,0-15.5h-23.3s0,7.8,0,7.8h15.5s0,7.8,0,7.8ZM283.1,1005.4l-.3.3v7.5s7.8,0,7.8,0v-7.8s-7.5,0-7.5,0ZM383.9,1005.4l-.3.3v15.2s-7.8,0-7.8,0v7.8s7.8,0,7.8,0v-7.8s7.8,0,7.8,0v-7.8s7.8,0,7.8,0v-7.8s-15.3,0-15.3,0ZM461.1,1028.4v-7.5s7.8,0,7.8,0v-7.8s-7.8,0-7.8,0v-7.8s-7.8,0-7.8,0v23.2s7.5,0,7.5,0l.3-.3ZM515.4,1013.2v-7.8s-7.8,0-7.8,0v7.8s7.8,0,7.8,0ZM546.4,1013.2v-7.8s-7.8,0-7.8,0v7.8s7.8,0,7.8,0ZM259.6,1020.7v-7.5s-7.8,0-7.8,0v7.8s7.5,0,7.5,0l.3-.3ZM616.4,1013.2l-.3.3v7.5s7.8,0,7.8,0v-7.8s-7.5,0-7.5,0ZM259.8,1020.9l-.3.3v7.5s7.8,0,7.8,0v-7.8s-7.5,0-7.5,0ZM313.8,1028.4v-7.5s-15.5,0-15.5,0v7.8s15.2,0,15.2,0l.3-.3ZM368.1,1028.7v-7.8s-7.8,0-7.8,0v7.8s7.8,0,7.8,0ZM430.1,1059.4v-7.5s7.8,0,7.8,0v-15.5s7.8,0,7.8,0v-15.5s-7.8,0-7.8,0v7.8s-15.5,0-15.5,0v7.8s7.8,0,7.8,0v15.5s-7.8,0-7.8,0v7.8s7.5,0,7.5,0l.3-.3ZM499.9,1028.7v-7.8s-15.5,0-15.5,0v7.8s15.5,0,15.5,0ZM577.4,1051.9v-7.8s7.7,0,7.7,0v-7.8s7.7,0,7.7,0v7.8s15.5,0,15.5,0v-15.5s-15.5,0-15.5,0v-7.8s-7.8,0-7.8,0v15.5s-7.8,0-7.8,0v7.8s-7.8,0-7.8,0v7.8s-7.8,0-7.8,0v7.8s7.8,0,7.8,0v-7.8s7.8,0,7.8,0ZM-19.5,1036.2v-7.5s-7.8,0-7.8,0v7.8s7.5,0,7.5,0l.3-.3ZM104.5,1044.2h7.8s0-7.8,0-7.8h-7.8s0-7.8,0-7.8h-15.5s0,7.8,0,7.8h-7.8s0,7.8,0,7.8h-7.5s-.3.3-.3.3v7.5s7.8,0,7.8,0v7.8s7.5,0,7.5,0l.3-.3v-7.5s15.5,0,15.5,0v-7.8ZM236.3,1044.2h-7.5s-.3.3-.3.3v7.5s7.8,0,7.8,0v15.5s-15.2,0-15.2,0l-.3.3v7.5s-7.8,0-7.8,0v15.5s7.5,0,7.5,0l.3-.3v-15.2s7.8,0,7.8,0v7.8s7.8,0,7.8,0v-15.5s7.7,0,7.7,0v7.8s15.2,0,15.2,0l.3-.3v-7.5s7.8,0,7.8,0v-7.8s7.8,0,7.8,0v-7.8s7.5,0,7.5,0l.3-.3v-7.5s-7.8,0-7.8,0v-7.8s-7.8,0-7.8,0v7.8s-7.8,0-7.8,0v7.8s-7.8,0-7.8,0v-7.8s-7.8,0-7.8,0v-7.8s7.8,0,7.8,0v-7.8s-7.8,0-7.8,0v7.8s-7.8,0-7.8,0v7.8ZM314.1,1028.7l-.3.3v7.5s-7.8,0-7.8,0v7.8s7.8,0,7.8,0v-7.8s7.8,0,7.8,0v-7.8s-7.5,0-7.5,0ZM352.6,1036.2v-7.5s-7.8,0-7.8,0v7.8s7.5,0,7.5,0l.3-.3ZM399.1,1036.2v-7.5s-7.8,0-7.8,0v7.8s-7.8,0-7.8,0v7.8s-15.5,0-15.5,0v15.5s-7.8,0-7.8,0v7.8s7.8,0,7.8,0v-7.8s7.8,0,7.8,0v-7.8s7.5,0,7.5,0l.3-.3v-7.5s7.8,0,7.8,0v-7.8s7.5,0,7.5,0l.3-.3ZM399.1,1036.7v7.5s7.8,0,7.8,0v-7.8s7.8,0,7.8,0v-7.8s-7.8,0-7.8,0v7.8s-7.5,0-7.5,0l-.3.3ZM461.4,1028.7l-.3.3v7.5s7.8,0,7.8,0v-7.8s-7.5,0-7.5,0ZM515.4,1036.4v-7.8s-7.8,0-7.8,0v7.8s7.8,0,7.8,0ZM623.9,1044.2v7.8s-7.8,0-7.8,0v7.8s-7.8,0-7.8,0v7.8s7.8,0,7.8,0v-7.8s15.5,0,15.5,0v-15.5s7.5,0,7.5,0l.3-.3v-7.5s-7.8,0-7.8,0v-7.8s-15.5,0-15.5,0v15.5s7.8,0,7.8,0ZM73.5,1043.9v-7.5s-15.5,0-15.5,0v15.5s-15.5,0-15.5,0v-7.8s-15.5,0-15.5,0v7.8s7.8,0,7.8,0v7.8s-7.8,0-7.8,0v15.5s7.8,0,7.8,0v-15.5s23.2,0,23.2,0v-7.8s7.8,0,7.8,0v-7.8s7.5,0,7.5,0l.3-.3ZM127.8,1044.2v-7.8s-7.8,0-7.8,0v7.8s7.8,0,7.8,0ZM352.6,1036.7v7.5s-15.5,0-15.5,0v-7.8s-7.8,0-7.8,0v15.5s15.5,0,15.5,0v7.8s-15.5,0-15.5,0v7.8s-7.8,0-7.8,0v7.8s-7.7,0-7.7,0v7.8s-23.3,0-23.3,0v7.8s15.5,0,15.5,0v7.8s-7.8,0-7.8,0v23.2s7.8,0,7.8,0v-23.2s7.5,0,7.5,0l.3-.3v-15.2s7.7,0,7.7,0v-7.8s23,0,23,0l.3-.3v-15.2s7.8,0,7.8,0v-15.5s7.8,0,7.8,0v-7.8s-7.5,0-7.5,0l-.3.3ZM468.9,1051.9h7.8s0-7.7,0-7.7h7.8s0,7.8,0,7.8h7.8s0-15.5,0-15.5h-15.5s0,7.8,0,7.8h-7.8s0,7.8,0,7.8h-7.8s0,15.5,0,15.5h7.8s0-15.5,0-15.5ZM-34.8,1044.2l-.3.3v7.5s7.8,0,7.8,0v-7.8s-7.5,0-7.5,0ZM282.8,1052.2v23s7.8,0,7.8,0v-7.8s15.5,0,15.5,0v-7.8s-15.5,0-15.5,0v-7.8s7.8,0,7.8,0v-7.8s-7.8,0-7.8,0v7.8s-7.5,0-7.5,0l-.3.3ZM437.9,1082.7v-7.5s7.8,0,7.8,0v-15.5s7.8,0,7.8,0v-15.5s-7.8,0-7.8,0v15.5s-15.2,0-15.2,0l-.3.3v7.5s7.8,0,7.8,0v7.8s-7.8,0-7.8,0v7.8s7.5,0,7.5,0l.3-.3ZM523.2,1051.7v-7.5s-15.5,0-15.5,0v7.8s15.2,0,15.2,0l.3-.3ZM639.7,1044.2l-.3.3v15.2s7.8,0,7.8,0v-15.5s-7.5,0-7.5,0ZM127.8,1059.7v-7.8s-7.8,0-7.8,0v7.8s7.8,0,7.8,0ZM220.8,1067.2v-15.2s-7.8,0-7.8,0v15.5s7.5,0,7.5,0l.3-.3ZM383.9,1051.9l-.3.3v7.5s7.8,0,7.8,0v7.8s23.3,0,23.3,0v-15.5s-7.8,0-7.8,0v7.8s-7.8,0-7.8,0v-7.8s-15.2,0-15.2,0ZM530.9,1059.9v7.5s15.5,0,15.5,0v-7.8s7.8,0,7.8,0v-7.8s-7.8,0-7.8,0v7.8s-15.2,0-15.2,0l-.3.3ZM-19.5,1075.2v-15.5s-7.8,0-7.8,0v15.5s7.8,0,7.8,0ZM89.3,1059.7l-.3.3v7.5s-7.8,0-7.8,0v7.8s7.8,0,7.8,0v-7.8s23.3,0,23.3,0v-7.8s-23,0-23,0ZM197.6,1067.2v-7.5s-7.8,0-7.8,0v7.8s7.5,0,7.5,0l.3-.3ZM484.4,1075.2v-15.5s-7.8,0-7.8,0v15.5s7.8,0,7.8,0ZM499.9,1067.4v-7.8s-7.8,0-7.8,0v7.8s7.8,0,7.8,0ZM585.2,1075.2h15.5s0-7.7,0-7.7h-7.8s0-7.8,0-7.8h-7.8s0,7.8,0,7.8h-7.8s0,15.5,0,15.5h7.7s0-7.8,0-7.8ZM654.9,1074.9v-7.5s7.8,0,7.8,0v-7.8s-7.8,0-7.8,0v7.8s-7.8,0-7.8,0v7.8s-7.8,0-7.8,0v7.8s-7.8,0-7.8,0v7.8s7.8,0,7.8,0v-7.8s7.8,0,7.8,0v-7.8s7.5,0,7.5,0l.3-.3ZM58,1075.2v-7.8s-7.8,0-7.8,0v7.8s7.8,0,7.8,0ZM73.5,1075.2v-7.8s-7.8,0-7.8,0v7.8s7.8,0,7.8,0ZM166.8,1067.4l-.3.3v7.5s7.8,0,7.8,0v-7.8s-7.5,0-7.5,0ZM197.8,1067.4l-.3.3v7.5s7.8,0,7.8,0v-7.8s-7.5,0-7.5,0ZM383.6,1074.9v-7.5s-7.8,0-7.8,0v7.8s7.5,0,7.5,0l.3-.3ZM-50.5,1082.7v-7.5s-7.8,0-7.8,0v7.8s7.5,0,7.5,0l.3-.3ZM19.3,1082.9v-7.8s-15.5,0-15.5,0v7.8s15.5,0,15.5,0ZM259.8,1075.2l-.3.3v7.5s7.8,0,7.8,0v-7.8s-7.5,0-7.5,0ZM345.1,1075.2l-.3.3v7.5s7.8,0,7.8,0v-7.8s-7.5,0-7.5,0ZM368.1,1082.9v-7.8s-7.8,0-7.8,0v7.8s7.8,0,7.8,0ZM383.9,1075.2l-.3.3v7.5s7.5,0,7.5,0l.3-.3v-7.5s-7.5,0-7.5,0ZM523.2,1082.9v-7.8s-15.5,0-15.5,0v7.8s15.5,0,15.5,0ZM554.2,1082.9v-7.8s-7.8,0-7.8,0v7.8s7.8,0,7.8,0ZM569.7,1082.9v-7.8s-7.8,0-7.8,0v7.8s7.8,0,7.8,0ZM624,1082.9v-7.8s-7.8,0-7.8,0v7.8s7.8,0,7.8,0ZM655.2,1075.2l-.3.3v7.5s7.8,0,7.8,0v-7.8s-7.5,0-7.5,0ZM-81.3,1082.9l-.3.3v7.5s-7.8,0-7.8,0v7.8s-7.8,0-7.8,0v7.8s7.5,0,7.5,0l.3-.3v-7.5s7.8,0,7.8,0v-7.8s7.5,0,7.5,0l.3-.3v-7.5s-7.5,0-7.5,0ZM-50.3,1082.9l-.3.3v15.2s7.8,0,7.8,0v-7.8s15.5,0,15.5,0v-7.8s-23,0-23,0ZM58,1106.2v7.8s7.8,0,7.8,0v-7.8s15.5,0,15.5,0v7.8s7.8,0,7.8,0v-7.5s7.8-.2,7.8-.2v-7.8s7.5,0,7.5,0l.3-.3v-7.5s7.8,0,7.8,0v-7.8s-7.8,0-7.8,0v7.8s-7.8,0-7.8,0v7.8s-7.8,0-7.8,0v-7.8s-7.8,0-7.8,0v7.5s-15.5.2-15.5.2v-7.8s-15.5,0-15.5,0v-7.8s-15.5,0-15.5,0v7.8s7.8,0,7.8,0v15.5s15.5,0,15.5,0ZM135.6,1090.7v-7.8s-7.8,0-7.8,0v7.8s7.8,0,7.8,0ZM182.1,1090.7h-7.8s0,7.8,0,7.8h-15.5s0-7.8,0-7.8h7.8s0-7.8,0-7.8h-7.8s0,7.8,0,7.8h-7.8s0-7.8,0-7.8h-7.8s0,15.5,0,15.5h-15.5s0,7.8,0,7.8h15.5s0-7.8,0-7.8h7.8s0,15.5,0,15.5h7.8s0-7.8,0-7.8h23.3s0-15.5,0-15.5ZM251.8,1090.4v-7.5s-7.8,0-7.8,0v7.8s7.5,0,7.5,0l.3-.3ZM391.6,1082.9l-.3.3v7.5s7.8,0,7.8,0v-7.8s-7.5,0-7.5,0ZM438.1,1082.9l-.3.3v7.5s15.5,0,15.5,0v-7.8s-15.2,0-15.2,0ZM476.7,1090.7v-7.8s-7.8,0-7.8,0v7.8s7.8,0,7.8,0ZM538.7,1090.7v-7.8s-7.8,0-7.8,0v7.8s7.8,0,7.8,0ZM-73.5,1090.7l-.3.3v15.2s7.8,0,7.8,0v-7.8s7.8,0,7.8,0v-7.8s-15.3,0-15.3,0ZM-11.7,1106.2v-15.5s-7.8,0-7.8,0v15.5s7.8,0,7.8,0ZM27,1098.4v-7.8s-15.5,0-15.5,0v7.8s15.5,0,15.5,0ZM205.3,1098.2v-7.5s-7.8,0-7.8,0v7.8s7.5,0,7.5,0l.3-.3ZM221.1,1090.7l-.3.3v15.2s7.8,0,7.8,0v-15.5s-7.5,0-7.5,0ZM252.1,1090.7l-.3.3v7.5s15.5,0,15.5,0v-7.8s-15.2,0-15.2,0ZM313.8,1098.7v7.5s7.8,0,7.8,0v-7.8s7.8,0,7.8,0v-7.8s-7.8,0-7.8,0v7.8s-7.5,0-7.5,0l-.3.3ZM352.6,1098.4v-7.8s-15.5,0-15.5,0v7.8s15.5,0,15.5,0ZM375.9,1098.2v-7.5s-15.5,0-15.5,0v7.8s15.2,0,15.2,0l.3-.3ZM430.1,1098.4v-7.8s-7.8,0-7.8,0v7.8s7.8,0,7.8,0ZM484.4,1105.9v-7.5s15.5,0,15.5,0v-7.8s-15.5,0-15.5,0v7.8s-15.5,0-15.5,0v7.8s-7.8,0-7.8,0v7.8s7.8,0,7.8,0v-7.8s15.2,0,15.2,0l.3-.3ZM554.2,1105.9v-7.5s15.5,0,15.5,0v-7.8s-15.5,0-15.5,0v7.8s-7.8,0-7.8,0v7.8s7.5,0,7.5,0l.3-.3ZM655,1098.4v-7.8s-7.8,0-7.8,0v7.8s7.8,0,7.8,0ZM3.8,1113.7v-15.2s-7.8,0-7.8,0v15.5s7.5,0,7.5,0l.3-.3ZM104.8,1098.4l-.3.3v7.5s7.8,0,7.8,0v-7.8s-7.5,0-7.5,0ZM205.6,1098.4l-.3.3v23s-7.8,0-7.8,0v15.5s7.8,0,7.8,0v-15.5s15.5,0,15.5,0v-7.8s-7.8,0-7.8,0v-15.5s-7.5,0-7.5,0ZM282.8,1106.2v-7.8s-7.8,0-7.8,0v7.8s7.8,0,7.8,0ZM376.1,1098.4l-.3.3v7.5s-7.8,0-7.8,0v7.8s-15.5,0-15.5,0v7.8s-7.8,0-7.8,0v7.8s-7.8,0-7.8,0v7.8s7.5,0,7.5,0l.3-.3v-7.5s7.8,0,7.8,0v-7.8s7.7,0,7.7,0v7.8s15.2,0,15.2,0l.3-.3v-7.5s7.8,0,7.8,0v-7.8s-7.8,0-7.8,0v-7.8s7.8,0,7.8,0v-7.8s-7.5,0-7.5,0ZM530.9,1114v7.8s7.7,0,7.7,0v-23.2s-7.8,0-7.8,0v7.8s-7.8,0-7.8,0v7.8s7.8,0,7.8,0ZM608.4,1106.2v-7.8s-7.8,0-7.8,0v7.8s7.8,0,7.8,0ZM639.5,1106.2v-7.8s-7.8,0-7.8,0v7.8s7.8,0,7.8,0ZM-89,1106.2l-.3.3v7.5s7.5,0,7.5,0l.3-.3v-7.5s-7.5,0-7.5,0ZM-50.5,1113.9v-7.8s-7.8,0-7.8,0v7.8s7.8,0,7.8,0ZM-27.3,1113.7v-7.5s-7.8,0-7.8,0v7.8s-7.8,0-7.8,0v15.5s7.8,0,7.8,0v-15.5s7.5,0,7.5,0l.3-.3ZM189.8,1137.2v-23.2s7.7,0,7.7,0v-7.8s-7.8,0-7.8,0v7.8s-7.8,0-7.8,0v23.3s7.8,0,7.8,0ZM259.6,1113.9v-7.8s-7.8,0-7.8,0v7.8s7.8,0,7.8,0ZM337.1,1113.9v-7.8s-7.8,0-7.8,0v7.8s7.8,0,7.8,0ZM453.4,1113.9v-7.8s-7.8,0-7.8,0v7.8s7.8,0,7.8,0ZM484.7,1106.2l-.3.3v7.5s-7.8,0-7.8,0v7.8s7.8,0,7.8,0v-7.8s7.5,0,7.5,0l.3-.3v-7.5s-7.5,0-7.5,0ZM554.4,1106.2l-.3.3v7.5s7.5,0,7.5,0l.3-.3v-7.5s-7.5,0-7.5,0ZM561.9,1114.2v7.5s7.8,0,7.8,0v-7.8s7.8,0,7.8,0v-7.8s-7.8,0-7.8,0v7.8s-7.5,0-7.5,0l-.3.3ZM592.9,1113.7v-7.5s-7.8,0-7.8,0v7.8s7.5,0,7.5,0l.3-.3ZM662.7,1113.9v-7.8s-15.5,0-15.5,0v7.8s15.5,0,15.5,0ZM-81.3,1114l-.3.3v7.5s-7.8,0-7.8,0v15.5s7.8,0,7.8,0v-15.5s15.5,0,15.5,0v-7.8s-15.2,0-15.2,0ZM-27,1113.9l-.3.3v15.2s7.8,0,7.8,0v-15.5s-7.5,0-7.5,0ZM-11.8,1145h-7.5s-.3.3-.3.3v7.5s7.8,0,7.8,0v7.8s15.3,0,15.3,0l.3-.3v-30.7s7.8,0,7.8,0v-15.5s-7.5,0-7.5,0l-.3.3v15.2s-15.5,0-15.5,0v15.5ZM42.5,1129.5h7.8s0-15.5,0-15.5h-23.3s0,7.8,0,7.8h15.5s0,7.8,0,7.8ZM81.3,1129.7v15.2s23.2,0,23.2,0v-7.8s7.8,0,7.8,0v-7.8s-7.8,0-7.8,0v-7.8s15.5,0,15.5,0v-7.8s-15.5,0-15.5,0v7.8s-7.8,0-7.8,0v15.5s-7.8,0-7.8,0v-7.8s-7.5,0-7.5,0l-.3.3ZM236.3,1121.7v-7.8s-7.8,0-7.8,0v7.8s7.8,0,7.8,0ZM422.4,1121.7v-7.8s-23.3,0-23.3,0v7.8s23.3,0,23.3,0ZM492.4,1113.9l-.3.3v7.5s7.5,0,7.5,0l.3-.3v-7.5s-7.5,0-7.5,0ZM593.2,1113.9l-.3.3v7.5s7.5,0,7.5,0l.3-.3v-7.5s-7.5,0-7.5,0ZM624,1145v-7.8s7.7,0,7.7,0v-23.2s-7.8,0-7.8,0v23.2s-7.8,0-7.8,0v7.8s7.8,0,7.8,0ZM81.3,1129.2v-7.5s-23.3,0-23.3,0v7.8s23,0,23,0l.3-.3ZM166.6,1129.5v-7.8s-7.8,0-7.8,0v7.8s7.8,0,7.8,0ZM267.3,1129.5v-7.8s-7.8,0-7.8,0v7.8s7.8,0,7.8,0ZM290.6,1129.5v-7.8s-7.8,0-7.8,0v7.8s7.8,0,7.8,0ZM329.4,1129.5v-7.8s-7.8,0-7.8,0v7.8s7.8,0,7.8,0ZM445.6,1129.5v-7.8s-7.8,0-7.8,0v7.8s7.8,0,7.8,0ZM461.1,1129.2v-7.5s-7.8,0-7.8,0v7.8s7.5,0,7.5,0l.3-.3ZM500.2,1121.7l-.3.3v7.5s-7.8,0-7.8,0v7.8s7.5,0,7.5,0l.3-.3v-7.5s7.8,0,7.8,0v-7.8s-7.5,0-7.5,0ZM523.2,1129.5v-7.8s-7.8,0-7.8,0v7.8s7.8,0,7.8,0ZM600.9,1121.7l-.3.3v7.5s7.8,0,7.8,0v-7.8s-7.5,0-7.5,0ZM639.5,1137.2h15.5s0-15.5,0-15.5h-7.8s0,7.8,0,7.8h-7.8s0,7.8,0,7.8ZM-66,1145v-7.8s7.7,0,7.7,0v-7.8s-7.8,0-7.8,0v7.8s-7.8,0-7.8,0v7.8s7.8,0,7.8,0ZM220.8,1137.2v-7.8s-7.8,0-7.8,0v7.8s7.8,0,7.8,0ZM251.8,1136.9v-7.5s-7.8,0-7.8,0v7.8s7.5,0,7.5,0l.3-.3ZM376.1,1129.5l-.3.3v7.5s7.8,0,7.8,0v-7.8s-7.5,0-7.5,0ZM375.9,1153v7.5s15.5,0,15.5,0v-7.8s7.8,0,7.8,0v-7.8s15.5,0,15.5,0v-15.5s-15.5,0-15.5,0v15.5s-7.8,0-7.8,0v7.8s-15.2,0-15.2,0l-.3.3ZM461.4,1129.5l-.3.3v7.5s-7.8,0-7.8,0v7.8s7.5,0,7.5,0l.3-.3v-7.5s15.5,0,15.5,0v-7.8s-15.2,0-15.2,0ZM538.7,1137.2v-7.8s-7.8,0-7.8,0v7.8s7.8,0,7.8,0ZM554.2,1137.2v-7.8s-7.8,0-7.8,0v7.8s7.8,0,7.8,0ZM-50.5,1152.7h7.8s0-7.7,0-7.7h7.8s0-7.8,0-7.8h-15.5s0,7.8,0,7.8h-7.8s0,15.5,0,15.5h7.8s0-7.8,0-7.8ZM-19.5,1144.7v-7.5s-7.8,0-7.8,0v7.8s7.5,0,7.5,0l.3-.3ZM50.3,1145v-7.8s-15.5,0-15.5,0v7.8s15.5,0,15.5,0ZM127.8,1144.7v-7.5s-7.8,0-7.8,0v7.8s7.5,0,7.5,0l.3-.3ZM127.8,1145.2v7.5s-7.8,0-7.8,0v7.8s7.8,0,7.8,0v-7.8s7.8,0,7.8,0v-7.8s7.8,0,7.8,0v-7.8s-7.8,0-7.8,0v7.8s-7.5,0-7.5,0l-.3.3ZM252.1,1137.2l-.3.3v7.5s-7.8,0-7.8,0v7.8s7.8,0,7.8,0v-7.8s7.8,0,7.8,0v-7.8s-7.5,0-7.5,0ZM282.8,1145v-7.8s-15.5,0-15.5,0v7.8s15.5,0,15.5,0ZM329.4,1145v-7.8s-7.8,0-7.8,0v7.8s7.8,0,7.8,0ZM345.1,1137.2l-.3.3v7.5s7.8,0,7.8,0v-7.8s-7.5,0-7.5,0ZM368.1,1144.7v-7.5s-7.8,0-7.8,0v7.8s7.5,0,7.5,0l.3-.3ZM500.2,1137.2l-.3.3v7.5s7.8,0,7.8,0v-7.8s-7.5,0-7.5,0ZM592.9,1145v-7.8s-7.8,0-7.8,0v7.8s7.8,0,7.8,0ZM19.3,1152.7v-7.8s-7.8,0-7.8,0v7.8s7.8,0,7.8,0ZM197.6,1152.7v-7.8s-15.5,0-15.5,0v7.8s15.5,0,15.5,0ZM298.4,1160.5v-7.8s7.7,0,7.7,0v-7.8s-7.8,0-7.8,0v7.8s-7.8,0-7.8,0v7.8s7.8,0,7.8,0ZM368.4,1145l-.3.3v7.5s7.5,0,7.5,0l.3-.3v-7.5s-7.5,0-7.5,0ZM461.4,1145l-.3.3v7.5s-7.8,0-7.8,0v7.8s-7.8,0-7.8,0v7.8s-7.8,0-7.8,0v7.8s7.8,0,7.8,0v-7.8s7.8,0,7.8,0v-7.8s7.8,0,7.8,0v-7.8s7.8,0,7.8,0v-7.8s-7.5,0-7.5,0ZM530.9,1152.7v-7.8s-7.8,0-7.8,0v7.8s7.8,0,7.8,0ZM662.7,1152.7v-7.8s-7.8,0-7.8,0v7.8s7.8,0,7.8,0ZM34.8,1160.5v-7.8s-7.8,0-7.8,0v7.8s7.8,0,7.8,0ZM73.6,1176h15.5s0-15.5,0-15.5h15.5s0-7.8,0-7.8h-15.5s0,7.8,0,7.8h-7.8s0,7.8,0,7.8h-7.8s0,7.8,0,7.8ZM228.6,1160.2v-7.5s-7.8,0-7.8,0v7.8s7.5,0,7.5,0l.3-.3ZM275.1,1160.5v-7.8s-7.8,0-7.8,0v7.8s7.8,0,7.8,0ZM624,1160.5v-7.8s-7.8,0-7.8,0v7.8s7.8,0,7.8,0ZM-27.2,1168.2v-7.8s-7.8,0-7.8,0v7.8s7.8,0,7.8,0ZM4,1160.5l-.3.3v7.5s-15.5,0-15.5,0v15.5s7.8,0,7.8,0v-7.8s7.8,0,7.8,0v-7.8s7.8,0,7.8,0v-7.8s-7.5,0-7.5,0ZM58,1168.2v-7.8s-7.8,0-7.8,0v7.8s7.8,0,7.8,0ZM143.3,1168.2v-7.8s-7.8,0-7.8,0v7.8s7.8,0,7.8,0ZM174.3,1168v-7.5s-7.8,0-7.8,0v7.8s7.5,0,7.5,0l.3-.3ZM182.1,1175.7v-7.5s7.8,0,7.8,0v-7.8s-7.8,0-7.8,0v7.8s-7.5,0-7.5,0l-.3.3v7.5s7.5,0,7.5,0l.3-.3ZM228.8,1160.5l-.3.3v7.5s7.8,0,7.8,0v-7.8s-7.5,0-7.5,0ZM259.6,1168.2v-7.8s-7.8,0-7.8,0v7.8s7.8,0,7.8,0ZM329.4,1168.2v-7.8s-7.8,0-7.8,0v7.8s7.8,0,7.8,0ZM360.4,1168.2v-7.8s-7.8,0-7.8,0v7.8s7.8,0,7.8,0ZM499.9,1168.2v-7.8s-7.8,0-7.8,0v7.8s7.8,0,7.8,0ZM538.7,1183.7v-7.8s7.7,0,7.7,0v-15.5s-7.8,0-7.8,0v15.5s-7.8,0-7.8,0v7.8s7.8,0,7.8,0ZM577.4,1168.2v-7.8s-7.8,0-7.8,0v7.8s7.8,0,7.8,0ZM647.2,1168.2v-7.8s-7.8,0-7.8,0v7.8s7.8,0,7.8,0ZM27,1183.7v-15.5s-7.8,0-7.8,0v15.5s7.8,0,7.8,0ZM112.3,1176v-7.8s-7.8,0-7.8,0v7.8s7.8,0,7.8,0ZM383.6,1191.5h7.8s0-7.8,0-7.8h7.8s0-15.5,0-15.5h-15.5s0,7.8,0,7.8h7.8s0,7.8,0,7.8h-7.8s0,7.8,0,7.8ZM430.1,1176v-7.8s-7.8,0-7.8,0v7.8s7.8,0,7.8,0ZM600.7,1176v-7.8s-7.8,0-7.8,0v7.8s7.8,0,7.8,0ZM50.3,1183.5v-7.5s-15.5,0-15.5,0v7.8s15.2,0,15.2,0l.3-.3ZM151,1183.5v-7.5s-7.8,0-7.8,0v7.8s-7.8,0-7.8,0v15.5s7.8,0,7.8,0v-15.5s7.5,0,7.5,0l.3-.3ZM151,1184v7.5s7.8,0,7.8,0v-7.8s7.8,0,7.8,0v-7.8s-7.8,0-7.8,0v7.8s-7.5,0-7.5,0l-.3.3ZM182.3,1176l-.3.3v7.5s-7.8,0-7.8,0v7.8s7.8,0,7.8,0v-7.8s7.8,0,7.8,0v-7.8s-7.5,0-7.5,0ZM267.3,1183.7v-7.8s-7.8,0-7.8,0v7.8s7.8,0,7.8,0ZM344.8,1183.7v-7.8s-7.7,0-7.7,0v7.8s-7.8,0-7.8,0v-7.8s-7.8,0-7.8,0v23.2s7.8,0,7.8,0v-7.8s23.3,0,23.3,0v-7.8s-7.8,0-7.8,0ZM368.1,1191.5v-7.8s7.7,0,7.7,0v-7.8s-7.8,0-7.8,0v7.8s-7.8,0-7.8,0v7.8s7.8,0,7.8,0ZM468.9,1183.7v-7.8s-7.8,0-7.8,0v7.8s7.8,0,7.8,0ZM577.4,1191.4v-15.5s-7.8,0-7.8,0v15.5s7.8,0,7.8,0ZM-97,1191.7v7.5s7.8,0,7.8,0v-7.8s7.8,0,7.8,0v-7.8s-7.8,0-7.8,0v7.8s-7.5,0-7.5,0l-.3.3ZM-50.5,1191.5v-7.8s-7.8,0-7.8,0v7.8s7.8,0,7.8,0ZM-35,1191.5v-7.8s-7.8,0-7.8,0v7.8s7.8,0,7.8,0ZM50.5,1183.7l-.3.3v7.5s7.8,0,7.8,0v-7.8s-7.5,0-7.5,0ZM104.5,1191.2v-7.5s-7.8,0-7.8,0v7.8s7.5,0,7.5,0l.3-.3ZM213.1,1199.2v-7.8s15.5,0,15.5,0v-7.8s-15.5,0-15.5,0v7.8s-7.8,0-7.8,0v7.8s7.8,0,7.8,0ZM282.8,1191.5v-7.8s-7.8,0-7.8,0v7.8s7.8,0,7.8,0ZM616.2,1191.5v-7.8s-15.5,0-15.5,0v7.8s15.5,0,15.5,0ZM662.7,1191.5v-7.8s-7.8,0-7.8,0v7.8s7.8,0,7.8,0ZM-66,1199v-7.5s-7.8,0-7.8,0v7.8s7.5,0,7.5,0l.3-.3ZM-27.2,1207v-7.8s7.7,0,7.7,0v-7.8s-7.8,0-7.8,0v7.8s-7.8,0-7.8,0v7.8s7.8,0,7.8,0ZM104.8,1191.5l-.3.3v7.5s7.5,0,7.5,0l.3-.3v-7.5s-7.5,0-7.5,0ZM244.1,1206.7v-15.2s-7.8,0-7.8,0v15.5s7.5,0,7.5,0l.3-.3ZM461.2,1199.2v-7.8s-7.8,0-7.8,0v7.8s7.8,0,7.8,0ZM515.4,1199.2v-7.8s-7.8,0-7.8,0v7.8s7.8,0,7.8,0ZM546.4,1199.2v-7.8s-7.8,0-7.8,0v7.8s7.8,0,7.8,0ZM592.9,1199.2v-7.8s-7.8,0-7.8,0v7.8s7.8,0,7.8,0ZM647.2,1199.2v-7.8s-7.8,0-7.8,0v7.8s7.8,0,7.8,0ZM-65.8,1199.2l-.3.3v7.5s7.8,0,7.8,0v-7.8s-7.5,0-7.5,0ZM3.8,1207v-7.8s-7.8,0-7.8,0v7.8s7.8,0,7.8,0ZM27,1214.7v-7.8s7.7,0,7.7,0v-7.8s-7.8,0-7.8,0v7.8s-7.8,0-7.8,0v7.8s7.8,0,7.8,0ZM58,1207v-7.8s-7.8,0-7.8,0v7.8s7.8,0,7.8,0ZM112.5,1199.2l-.3.3v15.2s7.8,0,7.8,0v-15.5s-7.5,0-7.5,0ZM158.8,1207v-7.8s-7.8,0-7.8,0v7.8s7.8,0,7.8,0ZM290.6,1207v-7.8s-7.8,0-7.8,0v7.8s7.8,0,7.8,0ZM523.2,1214.7v-7.8s7.7,0,7.7,0v-7.8s-7.8,0-7.8,0v7.8s-7.8,0-7.8,0v7.8s7.8,0,7.8,0ZM600.7,1214.7v-7.8s7.7,0,7.7,0v-7.8s-7.8,0-7.8,0v7.8s-15.5,0-15.5,0v7.8s15.5,0,15.5,0ZM81.3,1214.5v-7.5s-15.5,0-15.5,0v7.8s15.2,0,15.2,0l.3-.3ZM104.5,1214.7v-7.8s-7.8,0-7.8,0v7.8s7.8,0,7.8,0ZM197.6,1214.7v-7.8s-7.8,0-7.8,0v7.8s7.8,0,7.8,0ZM228.6,1214.5v-7.5s-7.8,0-7.8,0v7.8s7.5,0,7.5,0l.3-.3ZM244.3,1207l-.3.3v7.5s15.5,0,15.5,0v-7.8s-15.2,0-15.2,0ZM352.6,1214.7v-7.8s-7.8,0-7.8,0v7.8s7.8,0,7.8,0ZM430.1,1222.5v-7.8s7.7,0,7.7,0v-7.8s-7.8,0-7.8,0v7.8s-15.5,0-15.5,0v7.8s15.5,0,15.5,0ZM468.9,1214.5v-7.5s-7.8,0-7.8,0v7.8s7.5,0,7.5,0l.3-.3ZM507.7,1222.5v-15.5s-7.8,0-7.8,0v15.5s7.8,0,7.8,0ZM-73.8,1222.5v-7.8s-7.8,0-7.8,0v7.8s7.8,0,7.8,0ZM-27.3,1222.2v-7.5s-15.5,0-15.5,0v7.8s15.2,0,15.2,0l.3-.3ZM11.5,1222.5v-7.8s-7.8,0-7.8,0v7.8s7.8,0,7.8,0ZM81.5,1214.7l-.3.3v7.5s7.8,0,7.8,0v-7.8s-7.5,0-7.5,0ZM182.1,1222.5v-7.8s-7.8,0-7.8,0v7.8s7.8,0,7.8,0ZM228.8,1214.7l-.3.3v7.5s7.8,0,7.8,0v-7.8s-7.5,0-7.5,0ZM321.6,1222.5v-7.8s-7.8,0-7.8,0v7.8s7.8,0,7.8,0ZM337.1,1222.5v-7.8s-7.8,0-7.8,0v7.8s7.8,0,7.8,0ZM453.4,1222.2v-7.5s-7.8,0-7.8,0v7.8s7.5,0,7.5,0l.3-.3ZM469.1,1214.7l-.3.3v7.5s7.8,0,7.8,0v-7.8s-7.5,0-7.5,0ZM-50.5,1230.2v-7.8s-7.8,0-7.8,0v7.8s7.8,0,7.8,0ZM-27,1222.5l-.3.3v30.7s7.8,0,7.8,0v-31s-7.5,0-7.5,0ZM34.8,1230.2v-7.8s-7.8,0-7.8,0v7.8s7.8,0,7.8,0ZM65.8,1238v-15.5s-7.8,0-7.8,0v15.5s7.8,0,7.8,0ZM399.1,1230.2v-7.8s-7.8,0-7.8,0v7.8s7.8,0,7.8,0ZM453.6,1222.5l-.3.3v7.5s7.8,0,7.8,0v-7.8s-7.5,0-7.5,0ZM-89.3,1238v-7.8s-7.8,0-7.8,0v7.8s7.8,0,7.8,0ZM81.3,1238v-7.8s-7.8,0-7.8,0v7.8s7.8,0,7.8,0ZM-50.5,1245.5v-7.5s-7.8,0-7.8,0v7.8s7.5,0,7.5,0l.3-.3ZM34.8,1245.7v-7.8s-7.8,0-7.8,0v7.8s7.8,0,7.8,0ZM151.1,1245.7v-7.8s-7.8,0-7.8,0v7.8s7.8,0,7.8,0ZM523.2,1245.7v-7.8s-7.8,0-7.8,0v7.8s7.8,0,7.8,0ZM-50.3,1245.7l-.3.3v15.2s7.8,0,7.8,0v-15.5s-7.5,0-7.5,0ZM182.1,1253.5v-7.8s-15.5,0-15.5,0v7.8s15.5,0,15.5,0ZM220.8,1253.5v-7.8s-7.8,0-7.8,0v7.8s7.8,0,7.8,0ZM282.8,1253.5v-7.8s-7.8,0-7.8,0v7.8s7.8,0,7.8,0ZM298.4,1253.5v-7.8s-7.8,0-7.8,0v7.8s7.8,0,7.8,0ZM329.4,1253.5v-7.8s-7.8,0-7.8,0v7.8s7.8,0,7.8,0ZM399.1,1253.5v-7.8s-7.8,0-7.8,0v7.8s7.8,0,7.8,0ZM96.8,1261.2v-7.8s-7.8,0-7.8,0v7.8s7.8,0,7.8,0ZM476.7,1261.2v-7.8s-7.8,0-7.8,0v7.8s7.8,0,7.8,0ZM554.2,1261.2v-7.8s-7.8,0-7.8,0v7.8s7.8,0,7.8,0ZM182.1,1269v-7.8s-7.8,0-7.8,0v7.8s7.8,0,7.8,0ZM306.1,1269v-7.8s-7.8,0-7.8,0v7.8s7.8,0,7.8,0ZM34.8,1276.5v-7.5s-7.8,0-7.8,0v7.8s7.5,0,7.5,0l.3-.3ZM58,1276.7v-7.8s-7.8,0-7.8,0v7.8s7.8,0,7.8,0ZM275.1,1276.5v-7.5s-7.8,0-7.8,0v7.8s7.5,0,7.5,0l.3-.3ZM337.1,1276.7v-7.8s-7.8,0-7.8,0v7.8s7.8,0,7.8,0ZM414.6,1284.5v-7.8s7.7,0,7.7,0v-7.8s-7.8,0-7.8,0v7.8s-7.8,0-7.8,0v7.8s7.8,0,7.8,0ZM639.5,1276.7v-7.8s-7.8,0-7.8,0v7.8s7.8,0,7.8,0ZM-73.8,1284.5v-7.8s-7.8,0-7.8,0v7.8s7.8,0,7.8,0ZM-27.2,1284.5v-7.8s-7.8,0-7.8,0v7.8s7.8,0,7.8,0ZM35,1276.8l-.3.3v7.5s7.8,0,7.8,0v-7.8s-7.5,0-7.5,0ZM73.5,1284.5v-7.8s-7.8,0-7.8,0v7.8s7.8,0,7.8,0ZM174.3,1284.5v-7.8s-15.5,0-15.5,0v7.8s15.5,0,15.5,0ZM213.1,1284.5v-7.8s-7.8,0-7.8,0v7.8s7.8,0,7.8,0ZM228.6,1284.5v-7.8s-7.8,0-7.8,0v7.8s7.8,0,7.8,0ZM275.3,1276.8l-.3.3v7.5s7.8,0,7.8,0v-7.8s-7.5,0-7.5,0ZM461.2,1284.5v-7.8s-7.8,0-7.8,0v7.8s7.8,0,7.8,0ZM-89.3,1292.3v-7.8s-7.8,0-7.8,0v7.8s7.8,0,7.8,0ZM96.8,1292.3v-7.8s-7.8,0-7.8,0v7.8s7.8,0,7.8,0ZM143.3,1292.3v-7.8s-7.8,0-7.8,0v7.8s7.8,0,7.8,0Z"/>
  <rect x="585.2" y="703.1" width="7.8" height="7.8"/>
  <polygon points="4 532.5 11.5 532.5 11.5 524.7 19.3 524.7 19.3 517 27 517 27 524.7 19.3 524.7 19.3 532.5 11.5 532.5 11.5 540.3 3.7 540.3 3.8 555.8 -4 555.8 -4 548 -19.5 548 -19.5 555.8 -11.7 555.8 -11.8 571.3 -4 571.3 -4 563.5 3.8 563.5 3.8 571.3 19.3 571.3 19.2 579 -11.8 579 -11.8 594.5 -19.5 594.5 -19.5 586.8 -27.3 586.8 -27.3 579 -19.5 579 -19.5 563.5 -27.3 563.5 -27.3 555.8 -42.8 555.8 -42.8 548 -19.5 548 -19.5 540.2 -27.3 540.3 -27.3 532.5 -11.8 532.5 -11.7 540.3 3.7 540.3 3.8 532.8 3.5 532.5 -4 532.5 -4 524.7 3.8 524.7 3.8 532.2 4 532.5"/>
  <path d="M267.1,478.2h-7.5s0-7.8,0-7.8h7.8s0,7.5,0,7.5l.3.3h7.5s0-7.8,0-7.8h7.8s0,7.8,0,7.8h-7.8s0,7.8,0,7.8h-7.8s0,7.5,0,7.5l.3.3h15.2s0-7.8,0-7.8h7.8s0,31,0,31h-7.8s0,7.8,0,7.8h23.3s0,23.2,0,23.2h-7.8s0-7.7,0-7.7h-7.5s-.3.3-.3.3v7.5s-15.5,0-15.5,0v-15.5s-7.8,0-7.8,0v-7.8s7.8,0,7.8,0v-7.8s7.8,0,7.8,0v-15.5s-7.8,0-7.8,0v7.8s-15.5,0-15.5,0v-7.8s7.8,0,7.8,0v-7.5s-.3-.3-.3-.3h-15.2s0-7.8,0-7.8h15.5s0-7.5,0-7.5l-.3-.3ZM290.6,540v-7.5s-7.8,0-7.8,0v7.8s7.5,0,7.5,0l.3-.3Z"/>
  <polygon points="546.4 509.2 530.9 509.2 530.9 501.5 546.4 501.5 546.4 493.7 554.2 493.7 554.2 486 561.9 486 561.9 462.7 554.2 462.7 554.2 447.2 569.7 447.2 569.7 493.7 577.4 493.7 577.4 501.5 561.9 501.5 561.9 493.7 554.2 493.7 554.2 501.5 546.4 501.5 546.4 509.2"/>
  <polygon points="430.1 517.2 430.1 524.7 437.9 524.7 437.9 516.8 445.6 517 445.6 524.8 461.1 524.7 461.1 532.2 461.4 532.5 468.9 532.5 468.9 540.3 461.1 540.3 461.1 532.8 460.9 532.5 406.9 532.5 406.9 524.7 422.4 524.7 422.4 517.3 422.1 517 406.9 517 406.9 509.2 422.4 509.2 422.4 516.7 422.6 517 430.1 517.2"/>
  <polygon points="437.9 516.8 430.1 517.2 430.1 509.2 437.9 509.2 437.9 501.5 461.1 501.5 461.1 509.2 468.9 509.2 468.9 517 453.4 517 453.4 509.2 437.9 509.2 437.9 516.8"/>
  <polygon points="96.5 493.7 89 493.7 89 486 96.8 486 96.8 493.5 97 493.7 127.8 493.7 127.8 501.5 112.3 501.5 112.3 509.2 89 509.2 89 501.5 96.8 501.5 96.8 494 96.5 493.7"/>
  <polygon points="290.6 400.7 282.8 400.7 282.8 408.5 275.1 408.5 275.1 393 282.8 392.9 282.8 377.7 282.6 377.5 275.1 377.5 275.1 369.7 282.8 369.7 282.8 377.2 283.1 377.5 290.6 377.5 290.6 369.7 298.3 369.7 298.3 385.2 290.6 385.2 290.6 400.7"/>
  <rect x="282.8" y="408.5" width="7.8" height="7.8"/>
  <polygon points="290.6 408.5 290.6 400.7 298.3 400.7 298.3 408.2 298.6 408.5 306.1 408.5 306.1 416.2 298.3 416.2 298.3 408.7 298.1 408.5 290.6 408.5"/>
  <polygon points="213.1 431.7 205.3 431.7 205.3 424 189.8 424 189.8 416.2 205.3 416.2 205.3 400.7 213.1 400.7 213.1 416.2 220.8 416.2 220.8 424 213.1 424 213.1 431.7"/>
  <polygon points="143.5 509.2 135.5 509.2 135.5 501.5 143.3 501.5 143.5 509.2"/>
  <rect x="127.8" y="509.2" width="7.8" height="15.5"/>
  <polygon points="135.5 524.7 143.3 524.7 143.5 509.2 151 509.2 151 517 158.8 517 158.8 524.7 151 524.7 151 540.3 135.5 540.3 135.5 524.7"/>
  <polygon points="81.5 571.3 81.3 579 89 579 89 586.8 58 586.8 58 579 73.5 579 73.5 571.3 81.5 571.3"/>
  <polygon points="81.5 571.3 81.3 563.5 73.5 563.5 73.5 571.3 65.8 571.3 65.8 563.5 58 563.5 58 555.8 89 555.8 89 517 104.5 517 104.5 524.7 96.8 524.8 96.8 555.7 89 555.8 89 563.5 96.8 563.5 96.8 571.3 81.5 571.3"/>
  <polygon points="507.4 470.5 499.9 470.5 499.9 478.2 492.1 478.2 492.1 470.5 499.9 470.5 499.9 462.7 507.7 462.7 507.7 470.2 507.9 470.5 515.4 470.5 515.4 493.5 515.7 493.7 523.2 493.7 523.2 501.5 515.4 501.5 515.4 494 515.2 493.7 499.9 493.7 499.9 501.5 492.1 501.5 492.1 486 507.7 486 507.7 470.7 507.4 470.5"/>
  <polygon points="360.1 439.5 337.1 439.5 337.1 447.2 321.6 447.2 321.6 455 313.8 455 313.8 447.2 321.6 447.2 321.6 439.5 337.1 439.5 337.1 431.7 344.9 431.7 344.9 416.2 360.4 416.2 360.4 424 352.6 424 352.6 431.7 360.4 431.7 360.4 439.2 360.6 439.5 368.1 439.5 368.1 447 368.4 447.2 375.9 447.2 375.9 462.5 376.1 462.7 383.6 462.7 383.6 470.5 399.1 470.5 399.1 478.2 375.9 478.2 375.9 463 375.6 462.7 360.4 462.7 360.4 455 368.1 455 368.1 447.5 367.9 447.2 360.4 447.2 360.4 439.7 360.1 439.5"/>
  <polygon points="27 501.5 27 509.2 3.8 509.2 3.8 478.2 11.5 478.2 11.5 501.5 27 501.5"/>
  <polygon points="437.9 431.7 437.9 439.5 430.1 439.5 430.1 431.7 437.9 431.7 437.9 424 430.1 424 430.1 400.7 437.9 400.7 437.9 416.2 453.4 416.2 453.4 424 445.6 424 445.6 431.7 437.9 431.7"/>
  <polygon points="569.7 385.2 554.2 385.2 554.2 377.4 561.9 377.5 561.9 369.7 585.2 369.7 585.2 377.5 569.7 377.4 569.7 385.2"/>
  <polygon points="484.4 377.5 484.4 369.7 492.2 369.7 492.2 346.4 484.4 346.4 484.4 338.7 499.9 338.7 499.9 369.7 492.1 369.7 492.2 377.4 484.4 377.5"/>
  <polygon points="313.6 517 298.3 517 298.3 509.2 313.8 509.2 313.8 516.7 314.1 517 321.6 517 321.6 524.5 321.9 524.7 329.4 524.7 329.4 532.5 321.6 532.5 321.6 540.3 337.1 540.2 337.1 547.7 337.4 548 344.9 548 344.9 563.3 345.1 563.5 352.6 563.5 352.6 571.3 344.9 571.3 344.9 563.8 344.6 563.5 329.4 563.5 329.3 555.8 337.1 555.8 337.1 548.3 336.8 548 321.6 548 321.6 555.8 313.8 555.7 313.8 532.5 321.6 532.5 321.6 525 321.3 524.7 313.8 524.7 313.8 517.3 313.6 517"/>
  <polygon points="422.6 470.5 430.1 470.5 430.1 462.7 437.9 462.7 437.9 447.2 445.6 447.2 445.6 462.7 437.9 462.7 437.9 470.5 430.1 470.5 430.1 478.2 422.4 478.2 422.4 486 414.6 486 414.6 501.5 406.9 501.5 406.9 478.2 422.4 478.2 422.4 470.7 422.1 470.5 414.6 470.5 414.6 462.7 422.4 462.7 422.4 470.2 422.6 470.5"/>
  <polygon points="73.3 439.5 65.8 439.5 65.8 431.7 73.5 431.7 73.5 439.2 73.8 439.5 81.3 439.5 81.3 455 58 455 58 447.2 73.5 447.2 73.5 439.7 73.3 439.5"/>
  <polygon points="538.4 470.5 530.9 470.5 530.9 486 523.2 486 523.2 462.7 538.7 462.7 538.7 470.2 538.9 470.5 554.2 470.5 554.2 478.2 546.4 478.2 546.4 486 538.7 486 538.7 470.7 538.4 470.5"/>
  <polygon points="375.9 408.5 375.8 400.7 383.6 400.7 383.6 385.2 391.4 385.2 391.4 408.5 375.9 408.5"/>
  <polygon points="585.2 470.5 585.2 462.7 592.9 462.7 592.9 455 577.4 455 577.4 447.2 600.7 447.2 600.7 462.7 592.9 462.7 592.9 470.5 585.2 470.5"/>
  <polygon points="391.4 431.7 375.9 431.7 375.9 416.2 391.4 416.2 391.4 431.7"/>
  <polygon points="251.8 455 251.8 462.7 236.3 462.7 236.3 447.2 244.1 447.2 244.1 455 251.8 455"/>
  <polygon points="344.9 478.2 337.1 478.2 337.1 455 344.9 455 344.9 478.2"/>
  <polygon points="259.6 354.2 251.8 354.2 251.8 346.4 259.6 346.4 259.6 338.7 282.8 338.7 282.8 346.4 259.6 346.4 259.6 354.2"/>
  <polygon points="468.9 354.2 468.9 361.9 453.4 361.9 453.4 346.4 461.1 346.4 461.1 354.2 468.9 354.2"/>
  <polygon points="34.8 455 34.8 447.2 27 447.2 27 439.5 42.5 439.5 42.5 455 34.8 455"/>
  <polygon points="120 540.2 120 548 104.5 548 104.5 532.5 112.3 532.5 112.3 540.3 120 540.2"/>
  <polygon points="73.5 548 73.5 540.2 65.8 540.3 65.8 532.5 81.3 532.5 81.3 548 73.5 548"/>
  <polygon points="244.1 478.2 244.1 486 236.3 486 236.3 470.5 251.8 470.5 251.8 478.2 244.1 478.2"/>
  <polygon points="236.3 517 236.3 524.7 228.6 524.7 228.6 532.5 220.8 532.5 220.8 517.2 220.6 517 205.3 517 205.3 509.5 205.1 509.2 197.6 509.2 197.6 501.5 205.3 501.5 205.3 494 205.1 493.7 197.6 493.7 197.6 486 205.3 486 205.3 493.5 205.6 493.7 213.1 493.7 213.1 501.5 205.3 501.5 205.3 509 205.6 509.2 220.8 509.2 220.8 516.7 221.1 517 236.3 517"/>
  <polygon points="236.3 524.7 244.1 524.7 244.1 517 251.8 517 251.8 532.5 236.3 532.5 236.3 524.7"/>
  <rect x="236.3" y="509.2" width="7.8" height="7.8"/>
  <polygon points="313.8 478.2 313.8 470.5 306.1 470.5 306.1 462.7 321.6 462.7 321.6 478.2 313.8 478.2"/>
  <polygon points="135.3 424 120 424 120 431.7 112.3 431.7 112.3 447.2 104.5 447.2 104.5 462.7 96.8 462.7 96.8 478.2 89 478.2 89 462.7 96.8 462.7 96.8 447.2 104.5 447.2 104.5 439.5 96.8 439.5 96.8 431.7 112.3 431.7 112.3 424 120 424 120 408.5 127.8 408.5 127.8 416.2 135.5 416.2 135.5 423.7 135.8 424 143.3 424 143.3 431.7 135.5 431.7 135.5 424.2 135.3 424"/>
  <polygon points="499.9 524.8 499.9 517 492.1 517 492.2 509.2 507.7 509.2 507.7 524.7 499.9 524.8"/>
  <rect x="538.7" y="424" width="23.3" height="7.8"/>
  <polygon points="3.5 431.7 -4 431.7 -4 416.2 11.5 416.2 11.5 424 3.7 424 3.8 431.5 4 431.7 11.5 431.7 11.5 439.5 3.7 439.5 3.8 432 3.5 431.7"/>
  <polygon points="329.4 424 329.4 431.7 321.6 431.7 321.6 416.2 337.1 416.2 337.1 424 329.4 424"/>
  <polygon points="267.3 431.7 259.6 431.7 259.6 416.2 267.3 416.2 267.3 431.7"/>
  <polygon points="453.1 486 445.6 486 445.6 493.7 430.1 493.7 430.1 501.5 422.4 501.5 422.4 493.7 430.1 493.7 430.1 486 445.6 486 445.6 478.2 453.4 478.2 453.4 485.7 453.6 486 468.9 486 468.9 493.5 469.1 493.7 476.6 493.7 476.6 501.5 468.9 501.5 468.9 494 468.6 493.7 453.4 493.7 453.4 486.2 453.1 486"/>
  <polygon points="251.8 439.4 244.1 439.5 244.1 424 251.8 424 251.8 439.4"/>
  <polygon points="290.6 431.7 275.1 431.7 275.1 424 290.6 424 290.6 431.7"/>
  <polygon points="313.9 431.7 298.3 431.7 298.3 424 313.8 424 313.9 431.7"/>
  <polygon points="414.6 431.7 399.1 431.7 399.1 424 414.6 424 414.6 431.7"/>
  <polygon points="468.9 416.2 461.1 416.2 461.1 400.7 468.9 400.7 468.9 416.2"/>
  <polygon points="174.3 408.5 158.8 408.5 158.8 400.7 174.3 400.7 174.3 408.5"/>
  <polygon points="491.9 431.7 476.6 431.7 476.6 424 492.1 424 492.2 431.5 492.4 431.7 499.9 431.7 499.9 439.2 500.2 439.5 507.7 439.5 507.7 455 499.9 455 499.9 439.7 499.6 439.5 492.1 439.5 492.1 432 491.9 431.7"/>
  <polygon points="592.9 400.7 577.4 400.7 577.4 393 592.9 393 592.9 400.7"/>
  <polygon points="73.3 393 65.8 393 65.8 385.2 73.5 385.2 73.5 392.7 73.8 393 81.3 393 81.3 408.5 73.5 408.5 73.5 393.2 73.3 393"/>
  <polygon points="42.5 408.4 34.8 408.5 34.8 393 42.5 393 42.5 408.4"/>
  <polygon points="492.2 393 476.6 393 476.6 385.2 492.1 385.2 492.2 393"/>
  <polygon points="3.8 400.7 -4 400.7 -4 385.2 3.8 385.2 3.8 377.4 11.5 377.4 11.5 385.2 3.7 385.2 3.8 400.7"/>
  <polygon points="430.1 392.9 422.4 393 422.4 377.5 430.1 377.4 430.1 392.9"/>
  <polygon points="375.6 369.7 368.1 369.7 368.1 385.2 360.4 385.2 360.4 369.7 368.1 369.7 368.1 361.9 375.9 361.9 375.9 369.4 376.1 369.7 383.6 369.7 383.6 377.5 375.9 377.5 375.9 370 375.6 369.7"/>
  <polygon points="244.1 385.2 236.3 385.2 236.3 369.7 244.1 369.7 244.1 385.2"/>
  <polygon points="182.1 369.7 166.6 369.7 166.6 361.9 182.1 361.9 182.1 369.7"/>
  <polygon points="298.3 361.9 290.6 362 290.6 346.4 298.3 346.4 298.3 361.9"/>
  <polygon points="112.3 361.9 104.5 362 104.5 346.4 112.3 346.4 112.3 361.9"/>
  <polygon points="181.8 462.7 166.6 462.7 166.6 455 182.1 455 182.1 462.5 182.3 462.7 189.8 462.7 189.8 455 197.6 455 197.6 462.7 189.8 462.7 189.8 478.2 182.1 478.2 182.1 463 181.8 462.7"/>
  <polygon points="189.8 555.8 174.3 555.8 174.3 548 189.8 548 189.8 555.8"/>
  <polygon points="538.7 454.9 530.9 455 530.9 439.5 538.7 439.5 538.7 454.9"/>
  <polygon points="383.6 555.8 368.1 555.8 368.1 548 383.6 548 383.6 555.8"/>
  <polygon points="150.8 555.8 143.3 555.8 143.3 571.3 135.5 571.3 135.5 555.8 143.3 555.8 143.3 548 151 548 151 555.5 151.3 555.8 166.5 555.8 166.6 563.5 151 563.5 151 556 150.8 555.8"/>
  <polygon points="19.3 455 3.8 455 3.8 447.2 19.3 447.2 19.3 455"/>
  <polygon points="546.4 330.9 538.7 330.9 538.7 315.4 546.4 315.4 546.4 330.9"/>
  <polygon points="569.7 292.2 554.2 292.2 554.2 284.4 569.7 284.4 569.7 292.2"/>
  <polygon points="158.8 462.7 151 462.7 151 447.2 158.8 447.2 158.8 462.7"/>
  <rect x="352.6" y="284.4" width="7.3" height="7.8"/>
  <polygon points="368.1 571.3 360.4 571.3 360.4 563.5 368.1 563.5 368.1 571.3"/>
  <polygon points="127.8 571.3 120 571.3 120 563.5 127.8 563.5 127.8 571.3"/>
  <polygon points="112.3 571.3 104.5 571.3 104.5 563.5 112.3 563.5 112.3 571.3"/>
  <polygon points="205.1 625.5 197.6 625.5 197.6 617.8 205.3 617.8 205.3 625.3 205.6 625.5 213.1 625.5 213.1 633.3 205.3 633.3 205.3 625.8 205.1 625.5"/>
  <polygon points="259.6 548 251.8 548 251.8 540.2 259.6 540.2 259.6 548"/>
  <polygon points="244.1 548 236.3 548 236.3 540.2 244.1 540.2 244.1 548"/>
  <polygon points="58 548 50.3 548 50.3 540.2 58 540.2 58 548"/>
  <polygon points="166.6 540.3 158.8 540.3 158.8 532.5 166.6 532.5 166.5 524.7 174.3 524.7 174.3 532.5 166.5 532.5 166.6 540.3"/>
  <polygon points="34.8 540.3 27 540.3 27 532.5 34.8 532.5 34.8 540.3"/>
  <polygon points="182.1 648.8 174.3 648.8 174.3 641 182.1 641 182.1 648.8"/>
  <polygon points="344.9 532.5 337.1 532.5 337.1 524.7 344.9 524.7 344.9 532.5"/>
  <polygon points="298.4 268.9 290.6 268.9 290.6 261.2 298.3 261.2 298.4 268.9"/>
  <polygon points="120.1 524.7 112.3 524.7 112.3 517 120 517 120.1 524.7"/>
  <polygon points="73.5 517 65.8 517 65.8 509.2 73.5 509.2 73.5 517"/>
  <polygon points="42.5 517 34.8 517 34.8 509.2 42.5 509.2 42.5 517"/>
  <polygon points="236.3 501.5 228.6 501.5 228.6 493.7 236.3 493.7 236.3 501.5"/>
  <polygon points="65.8 501.5 58 501.5 58 493.7 65.8 493.7 65.8 501.5"/>
  <polygon points="42.5 501.5 34.8 501.5 34.8 493.7 42.5 493.7 42.5 501.5"/>
  <polygon points="313.9 493.7 306.1 493.7 306.1 486 313.8 486 313.9 493.7"/>
  <rect x="120" y="447.2" width="7.8" height="7.8"/>
  <polygon points="120 455 120 462.7 112.3 462.7 112.3 455 120 455"/>
  <rect x="127.8" y="455" width="7.8" height="7.8"/>
  <rect x="120" y="462.7" width="7.8" height="7.8"/>
  <rect x="135.5" y="462.7" width="7.8" height="7.8"/>
  <polygon points="135.5 470.5 135.5 478 135.8 478.2 143.3 478.2 143.3 485.7 143.6 486 151 486 151 493.7 143.3 493.7 143.3 486.2 143 486 135.5 486 135.5 478.5 135.3 478.2 127.8 478.2 127.8 470.5 135.5 470.5"/>
  <polygon points="476.4 478.2 468.9 478.2 468.9 470.5 476.6 470.5 476.6 462.7 484.4 462.7 484.4 455 492.2 455 492.2 462.7 484.4 462.7 484.4 470.5 476.6 470.5 476.6 478 476.9 478.2 484.4 478.2 484.4 486 476.6 486 476.6 478.5 476.4 478.2"/>
  <polygon points="368.1 486 360.4 486 360.4 478.2 368.1 478.2 368.1 486"/>
  <polygon points="50.3 486 42.5 486 42.5 478.2 50.3 478.2 50.3 486"/>
  <polygon points="228.6 478.2 220.8 478.2 220.8 470.5 228.6 470.5 228.6 478.2"/>
  <polygon points="73.3 470.5 65.8 470.5 65.8 478.2 58 478.2 58 470.5 65.8 470.5 65.8 462.7 73.5 462.7 73.5 470.2 73.8 470.5 81.3 470.5 81.3 478.2 73.5 478.2 73.5 470.7 73.3 470.5"/>
  <polygon points="213.1 470.5 205.3 470.5 205.3 462.7 213.1 462.7 213.1 455 220.8 455 220.8 462.7 213.1 462.7 213.1 470.5"/>
  <polygon points="19.3 470.5 11.5 470.5 11.5 462.7 19.3 462.7 19.3 470.5"/>
  <polygon points="461.2 455 453.4 455 453.4 447.2 461.1 447.2 461.2 455"/>
  <polygon points="430.1 455 422.4 455 422.4 447.2 430.1 447.2 430.1 455"/>
  <polygon points="399.1 455 391.4 455 391.4 447.2 399.1 447.2 399.1 455"/>
  <polygon points="306.1 447.2 298.3 447.2 298.3 439.5 306.1 439.5 306.1 447.2"/>
  <polygon points="282.8 447.2 275.1 447.2 275.1 439.5 282.8 439.5 282.8 447.2"/>
  <polygon points="228.6 447.2 220.8 447.2 220.8 439.5 228.6 439.5 228.6 447.2"/>
  <polygon points="197.6 447.2 189.8 447.2 189.8 439.5 197.6 439.5 197.6 447.2"/>
  <polygon points="143.3 447.2 135.5 447.2 135.5 439.5 143.3 439.5 143.3 447.2"/>
  <polygon points="523.2 439.5 515.4 439.5 515.4 431.7 523.2 431.7 523.2 439.5"/>
  <polygon points="461.2 439.5 453.4 439.5 453.4 431.7 461.1 431.7 461.2 439.5"/>
  <polygon points="174.3 439.5 166.5 439.5 166.5 431.7 174.3 431.7 174.3 439.5"/>
  <polygon points="592.9 431.7 585.2 431.7 585.2 424 592.9 424 592.9 431.7"/>
  <polygon points="34.8 431.7 27 431.7 27 424 34.8 424 34.8 431.7"/>
  <polygon points="182.1 424 174.3 424 174.3 416.2 182.1 416.2 182.1 424"/>
  <polygon points="104.5 424 96.8 424 96.8 416.2 104.5 416.2 104.5 424"/>
  <polygon points="507.4 400.7 499.9 400.7 499.9 408.5 492.1 408.5 492.2 416.2 484.4 416.2 484.4 408.5 492.2 408.5 492.1 400.7 499.9 400.7 499.9 393 507.7 393 507.7 400.5 507.9 400.7 515.4 400.7 515.4 408.2 515.7 408.5 523.2 408.5 523.2 416.2 515.4 416.2 515.4 408.7 515.1 408.5 507.7 408.5 507.7 401 507.4 400.7"/>
  <polygon points="422.4 416.2 414.6 416.2 414.6 408.5 422.4 408.5 422.4 416.2"/>
  <polygon points="546.4 408.5 538.7 408.5 538.7 400.7 546.4 400.7 546.4 408.5"/>
  <polygon points="360.4 408.5 352.6 408.5 352.6 400.7 360.4 400.7 360.4 408.5"/>
  <polygon points="329.4 408.5 321.6 408.5 321.6 400.7 329.3 400.7 329.4 408.5"/>
  <polygon points="151.1 408.5 143.3 408.5 143.3 400.7 151 400.7 151.1 408.5"/>
  <polygon points="96.8 400.7 89 400.7 89 393 96.8 393 96.8 400.7"/>
  <polygon points="523.2 393 515.4 393 515.4 385.2 523.2 385.2 523.2 393"/>
  <polygon points="259.6 393 251.8 393 251.8 385.2 259.6 385.2 259.6 393"/>
  <polygon points="174.3 393 166.5 393 166.5 385.2 174.3 385.2 174.3 393"/>
  <polygon points="414.6 385.2 406.9 385.2 406.9 377.4 414.6 377.4 414.6 385.2"/>
  <polygon points="197.6 385.2 189.8 385.2 189.8 377.4 197.6 377.5 197.6 369.7 205.3 369.7 205.3 377.5 197.6 377.4 197.6 385.2"/>
  <polygon points="127.8 385.2 120 385.2 120 377.4 127.8 377.4 127.8 385.2"/>
  <polygon points="538.7 377.4 530.9 377.5 530.9 369.7 538.7 369.7 538.7 377.4"/>
  <polygon points="523.2 377.4 515.4 377.5 515.4 369.7 523.2 369.7 523.2 377.4"/>
  <polygon points="81.3 377.4 73.5 377.5 73.5 369.7 81.3 369.7 81.3 377.4"/>
  <polygon points="554.2 369.7 546.4 369.7 546.4 361.9 554.2 361.9 554.2 369.7"/>
  <polygon points="422.4 369.7 414.6 369.7 414.6 361.9 422.4 361.9 422.4 369.7"/>
  <polygon points="267.3 369.7 259.6 369.7 259.6 361.9 267.3 361.9 267.3 369.7"/>
  <polygon points="228.6 369.7 220.8 369.7 220.8 361.9 228.6 361.9 228.6 369.7"/>
  <polygon points="143 361.9 135.5 361.9 135.5 354.2 143.3 354.2 143.3 361.7 143.6 361.9 151 361.9 151 354.2 158.8 354.2 158.8 361.9 151 361.9 151 369.7 143.3 369.7 143.3 362.2 143 361.9"/>
  <polygon points="592.9 361.9 585.2 361.9 585.2 354.2 592.9 354.2 592.9 361.9"/>
  <polygon points="523.2 361.9 515.4 361.9 515.4 354.2 523.2 354.2 523.2 361.9"/>
  <polygon points="437.9 361.9 430.1 361.9 430.1 354.2 437.9 354.2 437.9 361.9"/>
  <polygon points="360.4 361.9 352.6 361.9 352.6 354.2 360.4 354.2 360.4 361.9"/>
  <polygon points="337.1 361.9 329.3 361.9 329.3 354.2 337.1 354.2 337.1 361.9"/>
  <polygon points="58 361.9 50.3 361.9 50.3 354.2 58 354.2 58 346.4 65.8 346.4 65.8 354.2 58 354.2 58 361.9"/>
  <polygon points="11.5 361.9 3.8 361.9 3.8 354.2 11.5 354.2 11.5 361.9"/>
  <polygon points="561.7 346.4 554.2 346.4 554.2 338.7 561.9 338.7 561.9 346.2 562.2 346.4 569.7 346.4 569.7 354.2 561.9 354.2 561.9 346.7 561.7 346.4"/>
  <polygon points="42.5 354.2 34.8 354.2 34.8 346.4 42.5 346.4 42.5 338.7 50.3 338.7 50.3 346.4 42.5 346.4 42.5 354.2"/>
  <polygon points="538.7 346.4 530.9 346.4 530.9 338.7 538.7 338.7 538.7 346.4"/>
  <polygon points="321.6 346.4 313.8 346.4 313.8 338.7 321.6 338.7 321.6 346.4"/>
  <polygon points="205.3 346.4 197.6 346.4 197.6 338.7 205.3 338.7 205.3 346.4"/>
  <polygon points="158.8 346.4 151 346.4 151 338.7 158.8 338.7 158.8 346.4"/>
  <polygon points="127.8 346.4 120 346.4 120 338.7 127.8 338.7 127.8 346.4"/>
  <polygon points="27 346.4 19.3 346.4 19.3 338.7 27 338.7 27 346.4"/>
  <polygon points="3.8 346.4 -4 346.4 -4 338.7 3.8 338.7 3.8 346.4"/>
  <polygon points="592.9 338.7 585.2 338.7 585.2 330.9 592.9 330.9 592.9 338.7"/>
  <polygon points="414.6 338.7 406.9 338.7 406.9 330.9 414.6 330.9 414.6 338.7"/>
  <polygon points="492.2 330.9 484.4 330.9 484.4 323.2 492.1 323.2 492.2 330.9"/>
  <polygon points="282.8 330.9 275.1 330.9 275.1 323.2 282.8 323.2 282.8 330.9"/>
  <polygon points="174.3 330.9 166.5 330.9 166.5 323.2 174.3 323.2 174.3 330.9"/>
  <polygon points="577.4 323.2 569.7 323.2 569.7 315.4 577.4 315.4 577.4 323.2"/>
  <polygon points="437.9 323.2 430.1 323.2 430.1 315.4 437.9 315.4 437.9 323.2"/>
  <polygon points="406.9 315.4 399.1 315.4 399.1 307.7 406.9 307.7 406.9 315.4"/>
  <polygon points="228.3 307.7 220.8 307.7 220.8 299.9 228.6 299.9 228.6 307.4 228.8 307.7 236.3 307.7 236.3 315.4 228.6 315.4 228.6 307.9 228.3 307.7"/>
  <polygon points="112.3 315.4 104.5 315.4 104.5 307.7 112.3 307.7 112.3 315.4"/>
  <polygon points="554.2 307.7 546.4 307.7 546.4 299.9 554.2 299.9 554.2 307.7"/>
  <polygon points="437.9 307.7 430.1 307.7 430.1 299.9 437.9 299.9 437.9 307.7"/>
  <polygon points="321.6 307.7 313.8 307.7 313.8 299.9 321.6 299.9 321.6 307.7"/>
  <polygon points="468.9 299.9 461.1 299.9 461.1 292.2 468.9 292.2 468.9 299.9"/>
  <polygon points="453.4 299.9 445.6 299.9 445.6 292.2 453.4 292.2 453.4 299.9"/>
  <polygon points="213.1 284.4 205.3 284.4 205.3 276.7 213.1 276.7 213.1 284.4"/>
  <polygon points="337.1 276.7 329.3 276.7 329.3 268.9 337.1 268.9 337.1 276.7"/>
  <polygon points="313.9 276.7 306.1 276.7 306.1 268.9 313.8 268.9 313.9 276.7"/>
  <polygon points="112.3 276.7 104.5 276.7 104.5 268.9 112.3 268.9 112.3 276.7"/>
  <polygon points="523.2 268.9 515.4 268.9 515.4 261.2 523.2 261.2 523.2 268.9"/>
  <polygon points="492.2 268.9 484.4 268.9 484.4 261.2 492.1 261.2 492.2 268.9"/>
  <polygon points="383.6 268.9 375.9 268.9 375.9 261.2 383.6 261.2 383.6 268.9"/>
  <polygon points="406.9 610 399.1 610 399.1 602.3 406.9 602.3 406.9 610"/>
</svg>