<?xml version="1.0" encoding="UTF-8"?>
<svg id="Layer_3" data-name="Layer 3" xmlns="http://www.w3.org/2000/svg" viewBox="0 0 648.5 1296.2">
  <defs>
    <style>
      .cls-1 {
        fill: none;
        stroke: #6b6b6b;
        stroke-miterlimit: 10;
        stroke-width: .5px;
      }
    </style>
  </defs>
  <path class="cls-1" d="M9.1.2v1296"/>
  <path class="cls-1" d="M18.1.2v1296"/>
  <path class="cls-1" d="M27.1.2v1296"/>
  <path class="cls-1" d="M36.1.2v1296"/>
  <path class="cls-1" d="M45.1.2v1296"/>
  <path class="cls-1" d="M54.1.2v1296"/>
  <path class="cls-1" d="M63.1.2v1296"/>
  <path class="cls-1" d="M72.1.2v1296"/>
  <path class="cls-1" d="M81.1.2v1296"/>
  <path class="cls-1" d="M90.1.2v1296"/>
  <path class="cls-1" d="M99.1.2v1296"/>
  <path class="cls-1" d="M108.1.2v1296"/>
  <path class="cls-1" d="M117.1.2v1296"/>
  <path class="cls-1" d="M126.1.2v1296"/>
  <path class="cls-1" d="M135.1.2v1296"/>
  <path class="cls-1" d="M144.1.2v1296"/>
  <path class="cls-1" d="M153.1.2v1296"/>
  <path class="cls-1" d="M162.1.2v1296"/>
  <path class="cls-1" d="M171.1.2v1296"/>
  <path class="cls-1" d="M180.1.2v1296"/>
  <path class="cls-1" d="M189.1.2v1296"/>
  <path class="cls-1" d="M198.1.2v1296"/>
  <path class="cls-1" d="M207.1.2v1296"/>
  <path class="cls-1" d="M216.1.2v1296"/>
  <path class="cls-1" d="M225.1.2v1296"/>
  <path class="cls-1" d="M234.1.2v1296"/>
  <path class="cls-1" d="M243.1.2v1296"/>
  <path class="cls-1" d="M252.1.2v1296"/>
  <path class="cls-1" d="M261.1.2v1296"/>
  <path class="cls-1" d="M270.1.2v1296"/>
  <path class="cls-1" d="M279.1.2v1296"/>
  <path class="cls-1" d="M288.1.2v1296"/>
  <path class="cls-1" d="M297.1.2v1296"/>
  <path class="cls-1" d="M306.1.2v1296"/>
  <path class="cls-1" d="M315.1.2v1296"/>
  <path class="cls-1" d="M324.1.2v1296"/>
  <path class="cls-1" d="M333.1.2v1296"/>
  <path class="cls-1" d="M342.1.2v1296"/>
  <path class="cls-1" d="M351.1.2v1296"/>
  <path class="cls-1" d="M360.1.2v1296"/>
  <path class="cls-1" d="M369.1.2v1296"/>
  <path class="cls-1" d="M378.1.2v1296"/>
  <path class="cls-1" d="M387.1.2v1296"/>
  <path class="cls-1" d="M396.1.2v1296"/>
  <path class="cls-1" d="M405.1.2v1296"/>
  <path class="cls-1" d="M414.1.2v1296"/>
  <path class="cls-1" d="M423.1.2v1296"/>
  <path class="cls-1" d="M432.1.2v1296"/>
  <path class="cls-1" d="M441.1.2v1296"/>
  <path class="cls-1" d="M450.1.2v1296"/>
  <path class="cls-1" d="M459.1.2v1296"/>
  <path class="cls-1" d="M468.1.2v1296"/>
  <path class="cls-1" d="M477.1.2v1296"/>
  <path class="cls-1" d="M486.1.2v1296"/>
  <path class="cls-1" d="M495.1.2v1296"/>
  <path class="cls-1" d="M504.1.2v1296"/>
  <path class="cls-1" d="M513.1.2v1296"/>
  <path class="cls-1" d="M522.1.2v1296"/>
  <path class="cls-1" d="M531.1.2v1296"/>
  <path class="cls-1" d="M540.1.2v1296"/>
  <path class="cls-1" d="M549.1.2v1296"/>
  <path class="cls-1" d="M558.1.2v1296"/>
  <path class="cls-1" d="M567.1.2v1296"/>
  <path class="cls-1" d="M576.1.2v1296"/>
  <path class="cls-1" d="M585.1.2v1296"/>
  <path class="cls-1" d="M594.1.2v1296"/>
  <path class="cls-1" d="M603.1.2v1296"/>
  <path class="cls-1" d="M612.1.2v1296"/>
  <path class="cls-1" d="M621.1.2v1296"/>
  <path class="cls-1" d="M630.1.2v1296"/>
  <path class="cls-1" d="M639.1.2v1296"/>
  <path class="cls-1" d="M0,9.2h648"/>
  <path class="cls-1" d="M0,18.2h648"/>
  <path class="cls-1" d="M0,27.2h648"/>
  <path class="cls-1" d="M0,36.2h648"/>
  <path class="cls-1" d="M0,45.2h648"/>
  <path class="cls-1" d="M0,54.2h648"/>
  <path class="cls-1" d="M0,63.2h648"/>
  <path class="cls-1" d="M0,72.2h648"/>
  <path class="cls-1" d="M0,81.2h648"/>
  <path class="cls-1" d="M0,90.2h648"/>
  <path class="cls-1" d="M0,99.2h648"/>
  <path class="cls-1" d="M0,108.2h648"/>
  <path class="cls-1" d="M0,117.2h648"/>
  <path class="cls-1" d="M0,126.2h648"/>
  <path class="cls-1" d="M0,135.2h648"/>
  <path class="cls-1" d="M0,144.2h648"/>
  <path class="cls-1" d="M0,153.2h648"/>
  <path class="cls-1" d="M0,162.2h648"/>
  <path class="cls-1" d="M0,171.2h648"/>
  <path class="cls-1" d="M0,180.2h648"/>
  <path class="cls-1" d="M0,189.2h648"/>
  <path class="cls-1" d="M0,198.2h648"/>
  <path class="cls-1" d="M0,207.2h648"/>
  <path class="cls-1" d="M0,216.2h648"/>
  <path class="cls-1" d="M0,225.2h648"/>
  <path class="cls-1" d="M0,234.2h648"/>
  <path class="cls-1" d="M0,243.2h648"/>
  <path class="cls-1" d="M0,252.2h648"/>
  <path class="cls-1" d="M0,261.2h648"/>
  <path class="cls-1" d="M0,270.2h648"/>
  <path class="cls-1" d="M0,279.2h648"/>
  <path class="cls-1" d="M0,288.2h648"/>
  <path class="cls-1" d="M0,297.2h648"/>
  <path class="cls-1" d="M0,306.2h648"/>
  <path class="cls-1" d="M0,315.2h648"/>
  <path class="cls-1" d="M0,324.2h648"/>
  <path class="cls-1" d="M0,333.2h648"/>
  <path class="cls-1" d="M0,342.2h648"/>
  <path class="cls-1" d="M0,351.2h648"/>
  <path class="cls-1" d="M0,360.2h648"/>
  <path class="cls-1" d="M0,369.2h648"/>
  <path class="cls-1" d="M0,378.2h648"/>
  <path class="cls-1" d="M0,387.2h648"/>
  <path class="cls-1" d="M0,396.2h648"/>
  <path class="cls-1" d="M0,405.2h648"/>
  <path class="cls-1" d="M0,414.2h648"/>
  <path class="cls-1" d="M0,423.2h648"/>
  <path class="cls-1" d="M0,432.2h648"/>
  <path class="cls-1" d="M0,441.2h648"/>
  <path class="cls-1" d="M0,450.2h648"/>
  <path class="cls-1" d="M0,459.2h648"/>
  <path class="cls-1" d="M0,468.2h648"/>
  <path class="cls-1" d="M0,477.2h648"/>
  <path class="cls-1" d="M0,486.2h648"/>
  <path class="cls-1" d="M0,495.2h648"/>
  <path class="cls-1" d="M0,504.2h648"/>
  <path class="cls-1" d="M0,513.2h648"/>
  <path class="cls-1" d="M0,522.2h648"/>
  <path class="cls-1" d="M0,531.2h648"/>
  <path class="cls-1" d="M0,540.2h648"/>
  <path class="cls-1" d="M0,549.2h648"/>
  <path class="cls-1" d="M0,558.2h648"/>
  <path class="cls-1" d="M0,567.2h648"/>
  <path class="cls-1" d="M0,576.2h648"/>
  <path class="cls-1" d="M0,585.2h648"/>
  <path class="cls-1" d="M0,594.2h648"/>
  <path class="cls-1" d="M0,603.2h648"/>
  <path class="cls-1" d="M0,612.2h648"/>
  <path class="cls-1" d="M0,621.2h648"/>
  <path class="cls-1" d="M0,630.2h648"/>
  <path class="cls-1" d="M0,639.2h648"/>
  <path class="cls-1" d="M0,648.2h648"/>
  <path class="cls-1" d="M0,657.2h648"/>
  <path class="cls-1" d="M0,666.2h648"/>
  <path class="cls-1" d="M0,675.2h648"/>
  <path class="cls-1" d="M0,684.2h648"/>
  <path class="cls-1" d="M0,693.2h648"/>
  <path class="cls-1" d="M0,702.2h648"/>
  <path class="cls-1" d="M0,711.2h648"/>
  <path class="cls-1" d="M0,720.2h648"/>
  <path class="cls-1" d="M0,729.2h648"/>
  <path class="cls-1" d="M0,738.2h648"/>
  <path class="cls-1" d="M0,747.2h648"/>
  <path class="cls-1" d="M0,756.2h648"/>
  <path class="cls-1" d="M0,765.2h648"/>
  <path class="cls-1" d="M0,774.2h648"/>
  <path class="cls-1" d="M0,783.2h648"/>
  <path class="cls-1" d="M0,792.2h648"/>
  <path class="cls-1" d="M0,801.2h648"/>
  <path class="cls-1" d="M0,810.2h648"/>
  <path class="cls-1" d="M0,819.2h648"/>
  <path class="cls-1" d="M0,828.2h648"/>
  <path class="cls-1" d="M0,837.2h648"/>
  <path class="cls-1" d="M0,846.2h648"/>
  <path class="cls-1" d="M0,855.2h648"/>
  <path class="cls-1" d="M0,864.2h648"/>
  <path class="cls-1" d="M0,873.2h648"/>
  <path class="cls-1" d="M0,882.2h648"/>
  <path class="cls-1" d="M0,891.2h648"/>
  <path class="cls-1" d="M0,900.2h648"/>
  <path class="cls-1" d="M0,909.2h648"/>
  <path class="cls-1" d="M0,918.2h648"/>
  <path class="cls-1" d="M0,927.2h648"/>
  <path class="cls-1" d="M0,936.2h648"/>
  <path class="cls-1" d="M0,945.2h648"/>
  <path class="cls-1" d="M0,954.2h648"/>
  <path class="cls-1" d="M0,963.2h648"/>
  <path class="cls-1" d="M0,972.2h648"/>
  <path class="cls-1" d="M0,981.2h648"/>
  <path class="cls-1" d="M0,990.2h648"/>
  <path class="cls-1" d="M0,999.2h648"/>
  <path class="cls-1" d="M0,1008.2h648"/>
  <path class="cls-1" d="M0,1017.2h648"/>
  <path class="cls-1" d="M0,1026.2h648"/>
  <path class="cls-1" d="M0,1035.2h648"/>
  <path class="cls-1" d="M0,1044.2h648"/>
  <path class="cls-1" d="M0,1053.2h648"/>
  <path class="cls-1" d="M0,1062.2h648"/>
  <path class="cls-1" d="M0,1071.2h648"/>
  <path class="cls-1" d="M0,1080.2h648"/>
  <path class="cls-1" d="M0,1089.2h648"/>
  <path class="cls-1" d="M0,1098.2h648"/>
  <path class="cls-1" d="M0,1107.2h648"/>
  <path class="cls-1" d="M0,1116.2h648"/>
  <path class="cls-1" d="M0,1125.2h648"/>
  <path class="cls-1" d="M0,1134.2h648"/>
  <path class="cls-1" d="M0,1143.2h648"/>
  <path class="cls-1" d="M0,1152.2h648"/>
  <path class="cls-1" d="M0,1161.2h648"/>
  <path class="cls-1" d="M0,1170.2h648"/>
  <path class="cls-1" d="M0,1179.2h648"/>
  <path class="cls-1" d="M0,1188.2h648"/>
  <path class="cls-1" d="M0,1197.2h648"/>
  <path class="cls-1" d="M0,1206.2h648"/>
  <path class="cls-1" d="M0,1215.2h648"/>
  <path class="cls-1" d="M0,1224.2h648"/>
  <path class="cls-1" d="M0,1233.2h648"/>
  <path class="cls-1" d="M0,1242.2h648"/>
  <path class="cls-1" d="M0,1251.2h648"/>
  <path class="cls-1" d="M0,1260.2h648"/>
  <path class="cls-1" d="M0,1269.2h648"/>
  <path class="cls-1" d="M0,1278.2h648"/>
  <path class="cls-1" d="M0,1287.2h648"/>
</svg>